<?xml version="1.0" encoding="utf-8"?>
<!-- Generator: Adobe Illustrator 19.0.0, SVG Export Plug-In . SVG Version: 6.00 Build 0)  -->
<svg version="1.1"
	 id="svg4625" xmlns:sodipodi="http://sodipodi.sourceforge.net/DTD/sodipodi-0.dtd" xmlns:svg="http://www.w3.org/2000/svg" xmlns:inkscape="http://www.inkscape.org/namespaces/inkscape" xmlns:cc="http://creativecommons.org/ns#" xmlns:dc="http://purl.org/dc/elements/1.1/" xmlns:rdf="http://www.w3.org/1999/02/22-rdf-syntax-ns#" inkscape:version="0.91 r13725" sodipodi:docname="frds2.svg"
	 xmlns="http://www.w3.org/2000/svg" xmlns:xlink="http://www.w3.org/1999/xlink" x="0px" y="0px" viewBox="-7 -114.9 595.3 841.9"
	 style="enable-background:new -7 -114.9 595.3 841.9;" xml:space="preserve">
<style type="text/css">
	.st0{fill:#FFFFFF;}
	.st1{fill:#EC6423;}
	.st2{fill:#565659;}
</style>
<sodipodi:namedview  borderopacity="1.0" inkscape:zoom="0.35" id="base" showgrid="false" inkscape:cx="375" inkscape:cy="520" bordercolor="#666666" pagecolor="#ffffff" inkscape:current-layer="layer1" inkscape:window-maximized="1" inkscape:window-y="-8" inkscape:window-x="-8" inkscape:pageopacity="0.0" inkscape:window-height="705" inkscape:pageshadow="2" inkscape:window-width="1366" inkscape:document-units="px">
	</sodipodi:namedview>
<path id="XMLID_2_" class="st0" d="M5.9,241.3c0.7,18.6,1.3,82.6,1.5,142c0.4,123.6,1.3,136.6,13.1,161.5
	c15.7,33.5,40.2,46.4,136.9,72.4c68.3,18.4,91.9,29.3,122.4,56.7l11.2,10.1l8.5-8.1c27.6-26.4,56.2-40.5,112.7-55.4
	c87.1-23.1,116.8-35.1,134.5-54.8c13.1-14.5,19.5-29.2,24.2-55c2.4-13.4,2.8-27.5,2.5-102.7c-0.3-83.8,1.6-164.1,7.3-306.5
	c4.4-116.8,4.3-106.3,1.1-108c-1.6-0.9-23.3-1.9-48-2.4c-58.3-1.2-100.3-6.5-146-17.4c-24.6-5.8-60-18-78.5-26.8
	c-8.8-4.2-17.3-7.7-18.8-7.7s-7.4,2.2-13.1,5C217.2-26.4,140.8-10.8,48.7-9.1C24.7-8.6,3.5-8,1.4-7.6C-2.2-6.8-2.4-6-2.4,9.7
	c0,9,1.2,44.6,2.5,79.2C2.8,159.2,4.1,191.9,5.9,241.3z"/>
<path id="path4597" inkscape:connector-curvature="0" sodipodi:nodetypes="sssssssssssssssssssssscssssscsssssssscsssssssssssscssssssscsscsssssssssssssssssssssssscsssscsccsssssscsssssssss" class="st1" d="
	M275.8,631.4c-15-15.9-53.6-33-114.3-50.4c-70.6-20.3-92.9-30-107.6-46.8c-18.8-21.4-21.7-36.9-22.7-122.9
	c-1.5-126.7-5.7-297.4-8.4-346.1l-2.5-45l48.1-2.6c71.4-3.9,123.5-12.9,169.1-29.1c22.4-8,51.8-20.4,58.5-20.5
	c6.7-0.1,22,11.3,41.1,18.1C388.5,4.5,429,11.7,495.4,14.2c32.9,1.2,60.6,3.7,61.7,5.4c1.1,1.7-0.8,80.1-4.1,174.2
	c-3.3,94.1-6.1,197.6-6.1,230c0,67.4-5.7,93.7-24.1,112.1c-16.7,16.7-37.7,25.5-111.2,47c-64.4,18.8-80.5,26-107.1,47.5
	c-7.7,6.2-15.1,11.4-16.5,11.4C286.6,641.7,281.2,637.1,275.8,631.4L275.8,631.4z M358.9,474c26-6.9,54.5-23.2,54.7-31.4
	c0-2.7,8.3-10.5,18.3-17.1c23.2-15.5,39.5-38.8,40.5-57.9c0.4-8.2,4.6-27.3,9.3-42.6c8.4-27.2,10.9-60.1,6-78.7
	c-1.6-5.9-3.6-7.7-5.4-4.8c-1.6,2.6-4-4.4-5.3-15.5c-4-34-23-63.8-57-89.7c-7.1-5.4-7.4-5.1-4.5,4.3c3,9.6,2.8,9.7-4.5,3.5
	c-9.3-8.1-39.9-23.7-46.4-23.7c-2.6,0,3.6,7.4,13.9,16.4c10.3,9,22.5,21.9,27.3,28.5l8.6,12l-13.5-8.3c-21.5-13.1-25.5-9.8-10,8.4
	c14.5,17,24.3,40.8,28.8,70.2c2.3,15.1,2.1,15.7-3.8,8.3c-3.5-4.3-6.3-9.3-6.3-11.1c0-1.8-1.9-3.3-4.3-3.3c-2.9,0-3.4,7.4-1.6,22.2
	c2.9,23.4-0.4,52.1-5.7,48.9c-1.7-1.1-5.3,6.7-8.1,17.3c-6.8,26.6-19.4,46.4-27.5,43.3c-3.5-1.4-9.1-0.2-12.4,2.5
	c-6.2,5.1-9.3,6.1-34.2,10c-17.3,2.7-44.9-1.5-41.8-6.5c1.2-1.9-4.1-4.6-11.6-6c-7.5-1.4-15.9-5.3-18.6-8.5c-4.2-5.1-2.5-6,11.3-6
	c10.2,0,24.8-4.5,39.3-12.1c12.7-6.7,25.6-12.1,28.7-12.1c11.8,0,5.9-16.5-8-22.3c-11.9-5-16.5-4.9-36.1,0.7
	c-12.4,3.5-26.7,5.3-31.8,4c-14.5-3.7-31.6-21.9-31.6-33.6c0-9.3,1.3-10.2,12.1-8.6c11.4,1.7,12.1,1,12.1-11.8
	c0-11.7,2.4-15,18-24.4c29.9-18,34.6-37.4,9.1-37.5c-42.7-0.1-55-12.1-23.5-38.8c14.4-12.2,11.5-17.7,5-17.7
	c-9.6,0-41.6,20-44.9,25.3c-1.4,2.3-20.1,2.6-34.1,2.6c-26.9,0-22.6-12.2-28.3-30.9c-1.5-5-4.3-9.1-6.1-9.1
	c-5.9,0-15.8,44.3-18.5,67c-1.5,12.2-7.1,13.3-12.5,25c-7.8,16.9-10,29-10.8,59.3c-0.5,20.9,6.4,43.1,9,53.4
	c15.7,62.4,61.8,112.3,126.1,136.5c21.3,8,30.9,9.2,65.8,8.1C316.2,481,345.5,477.5,358.9,474L358.9,474z M384.6,449.6
	c7.5-3.2,14.8-5.8,16.2-5.8c5.3,0.3-17.9,11.7-23.7,11.7C373.7,455.5,377.1,452.8,384.6,449.6L384.6,449.6z M445.5,387.6
	c5.5-10.2,11.2-13.9,14.1-9.1c1.2,2-2.4,6.7-8.1,10.5C441.4,395.5,441.2,395.5,445.5,387.6z M470,295.9c0-3.5,1.8-5.2,4.1-3.8
	c2.3,1.4,3.1,4.2,1.8,6.3C472.4,304.1,470,303,470,295.9z M364.3,276.2c22.5-23.8,25.3-34.1,12.7-46.7c-8.5-8.5-22.4-13.7-28.9-3.7
	c-8.7,13.3-9.3,15.5-19.9-0.5c-5.9-8.8-13.4-3.7-21.9,1.8c-16.4,10.8-13.7,27.3,8.6,51.1c10.3,11,21,20,23.7,20
	C341.3,298.2,352.9,288.3,364.3,276.2L364.3,276.2z"/>
<path id="XMLID_327_" class="st2" d="M570.2,517c-4.7,12.7-11.3,22.5-22.7,34.1c-22.3,22.6-48.5,33.5-131.5,55.2
	c-57.2,14.9-74.1,23.4-104.5,52.7c-9.2,8.8-17.5,16-18.4,16c-3.8,0-9.1-4-20.9-15.9c-27.4-27.6-48.9-38.4-105.5-53.1
	c-54.2-14.1-74.1-20.5-95.5-30.5c-27.2-12.8-43.1-27.6-54.7-51c-3.1-6.2-5.8-11.3-5.9-11.3c-0.7,0,2.7,15.4,5.8,25.6
	c9,30.5,30.4,55.2,59.8,68.6c20,9.2,41.1,15.9,92.4,29.3c40.6,10.7,59,17.6,77.2,29.3c7.4,4.8,25.1,20.3,31,27.4
	c2.4,2.9,6.5,6.5,9.2,8.2l0,0c2.6,1.6,5.7,2.9,6.8,2.9s9.6-7.2,18.7-16c30.9-29.8,45.2-36.7,116.2-55c17.8-4.6,56.1-16.4,66.1-20.3
	c22-8.6,43.6-23,54.1-36.2c8.9-11.1,17.1-28.4,21.4-44.9C573.2,516.7,573.8,507.3,570.2,517z"/>
</svg>
