<?xml version="1.0" encoding="utf-8"?>
<!-- Generator: Adobe Illustrator 19.0.0, SVG Export Plug-In . SVG Version: 6.00 Build 0)  -->
<svg version="1.1" id="Layer_1" xmlns="http://www.w3.org/2000/svg" xmlns:xlink="http://www.w3.org/1999/xlink" x="0px" y="0px"
	 viewBox="0 -90 612 792" style="enable-background:new 0 -90 612 792;" xml:space="preserve">
<style type="text/css">
	.st0{fill:#FFFFFF;}
	.st1{fill:#9D9D9F;}
	.st2{fill:#565659;}
	.st3{fill:#DE875C;}
	.st4{fill:#E37A47;}
	.st5{fill:#E4692A;}
	.st6{fill:#E36125;}
	.st7{fill:#E35826;}
</style>
<path id="XMLID_2_" class="st0" d="M10.2,220.7c0.7,19.1,1.4,84.9,1.6,146c0.4,127.1,1.4,140.4,13.6,166
	c16.3,34.4,41.8,47.7,142.5,74.4c71.1,18.9,95.6,30.1,127.4,58.3l11.7,10.4l8.8-8.3c28.7-27.1,58.5-41.6,117.3-57
	c90.6-23.7,121.5-36.1,140-56.3c13.6-14.9,20.3-30,25.2-56.5c2.5-13.8,2.9-28.3,2.6-105.6c-0.3-86.1,1.7-168.7,7.6-315.1
	c4.6-120.1,4.5-109.3,1.1-111c-1.7-0.9-24.2-2-50-2.5c-60.3-1.2-101.9-6.1-151.9-17.9c-25.6-6-62.4-18.5-81.7-27.6
	c-9.2-4.3-18-7.9-19.6-7.9s-7.7,2.3-13.6,5.1C230.1-54.5,150.6-38.4,54.7-36.7c-24.9,0.5-47,1.2-49.2,1.6c-3.7,0.8-3.9,1.6-3.9,17.8
	c0,9.3,1.2,45.9,2.6,81.4C7,136.3,8.3,170,10.2,220.7z"/>
<path id="XMLID_328_" class="st1" d="M32.7,220.8c0.6,17.6,1.3,77.8,1.5,133.9c0.3,116.5,1.3,128.7,12.4,152.2
	c14.9,31.5,38.3,43.7,130.6,68.2c65.2,17.3,87.6,27.6,116.8,53.4l10.7,9.5l8.1-7.6c26.3-24.9,53.6-38.2,107.5-52.2
	c83.1-21.7,111.4-33.1,128.3-51.6c12.5-13.7,18.6-27.5,23.1-51.8c2.3-12.6,2.6-25.9,2.3-96.8c-0.3-78.9,1.5-154.7,6.9-288.9
	c4.5-110.2,4.3-100.3,1.2-101.9c-1.5-0.8-22.2-1.8-45.9-2.3C481-16.2,442.7-20.7,397-31.5c-23.5-5.5-57.2-16.9-74.9-25.3
	c-8.4-4-16.5-7.2-18-7.2s-7.1,2.1-12.4,4.7C234.4-31.6,161.4-16.8,73.5-15.2c-22.8,0.4-43.1,1.1-45.1,1.5C25-13,24.8-12.2,24.8,2.6
	c0,8.5,1.1,42.1,2.4,74.6C29.8,143.4,31,174.3,32.7,220.8z M77.2,286.3l14.9,15.1c8.8,8.9,17.5,19.6,21.1,25.9
	c3.4,6,6.7,11.1,7.2,11.4s0.7-6.9,0.4-16c-0.5-16.6,2.1-32.9,6.9-42.1c2-3.8,2.1-3.7,4.5,4c4.1,12.8,4.7,24.2,2,38.2
	c-1.4,7-2.5,17.4-2.5,23.1s-0.6,11.2-1.2,12.2c-0.8,1.3-4.2-0.4-10.7-5.2c-29.3-21.6-36.7-32.5-41.5-60.4L77.2,286.3z M439.8,463.1
	c-25.2,12.3-58.1,11.5-84.6-2.1c-10.7-5.4-35.1-10.9-35.1-7.8c0,0.8,2.7,2.8,6.1,4.5c7.3,3.7,20.8,14,30.2,23
	c6.3,6.1,6.6,6.6,4.1,9.4c-1.4,1.6-3.7,2.9-4.9,2.9c-1.3,0-7.7-5-14.2-11.1c-12.3-11.5-26.9-21.3-34.2-23.2
	c-7.3-1.8-30,12.1-45.2,27.8c-3.5,3.6-7.2,6.5-8.3,6.5c-2.3,0-7-4.3-7-6.4c0-2.2,22.8-20.8,33.6-27.3c6.8-4.1,8.8-6,6.8-6.4
	c-5.6-1.2-19,2.2-33.9,8.6c-32.1,13.6-58.7,14.2-84,1.8l-9.2-4.5l14.3-1.1c10.2-0.8,22-3.5,41.4-9.4c26.1-7.9,27.8-8.2,45.5-8.2
	c13.2,0.1,21.9,1,31,3.4c11.8,3.1,13.3,3.1,20.9,0.9c4.5-1.3,15-3.1,23.4-4.1c17.9-2,28.5-0.7,51.7,6.5c25.5,7.8,34.2,9.9,47.7,11
	l12.8,1.1L439.8,463.1z M523.6,316.9c-4.4,9.7-17.4,24.1-28,31.3c-3.9,2.7-9.5,7-12.4,9.7l-5.2,4.9v-9.6c0-5.3-1.2-16.4-2.6-24.7
	c-3-17.6-2.3-36,1.8-45.4l2.8-6.4l3,9.6c4.7,15,6.5,29.3,5.3,42.3l-1,12l8.4-13.6c8.1-13,35-41.8,35-37.5
	C530.7,295.2,527,309.4,523.6,316.9z M533,224.7c2.4-5.4,2.4-5.3,2.4,8.8c0,16.5-2.6,29.4-8,39.6c-2.1,3.9-9.7,13.3-16.8,20.9
	l-13,13.8l-1.1-6c-0.6-3.3-4-14.9-7.5-25.8c-5.9-18.2-10.2-43.3-7.5-43.3c2.3,0,12.5,13.9,16.4,22.4c2.2,4.8,4.8,12.6,5.8,17.3
	c2,9.8,3.2,9.1,7.2-4.5c2.9-10,10.6-25.8,16-32.9C529,232.4,531.7,227.8,533,224.7z M505.4,226.4c1.9,0,2.3-8,0.9-19.2
	c-1.3-10.8-0.1-38.7,2.1-46.1c1.2-4,1.5-3.7,5.6,5.4c10.1,22.2,10.3,46,0.7,71c-2.7,7-5.6,12.8-6.4,12.8s-1.5-0.8-1.5-1.7
	c0-2.9-11.3-19.5-19.5-28.7c-8.1-9.1-17.2-25.4-17.2-30.7c0-2.8,0.6-2.7,8.3,1.5c9.8,5.3,18.9,16.3,23,27.5
	C502.9,222.8,504.8,226.4,505.4,226.4z M479.5,120.1c10.6,9.6,19.4,33.8,19.2,52.7l0,0c-0.1,5.3-0.6,12.5-1.2,15.9l-1.1,6.2
	l-3.2-3.5c-1.8-1.9-8.2-6.5-14.4-10.1c-6.1-3.6-14.4-9.8-18.4-13.8c-7.3-7.2-15.2-21.1-12.6-22.1c2.2-0.8,23.2,13.4,31.9,21.5
	l7.9,7.4v-8c0-4.5-2-14.2-4.6-22.2c-2.5-7.8-5.1-17-5.7-20.5l-1.1-6.4L479.5,120.1z M439,108.6c1.3-1.3,20,11.3,24.9,16.9
	c4.3,4.8,14.2,23.6,14.2,26.7c0,2.1-3.2,0.1-13.8-8.7c-6.3-5.2-13.3-11.9-15.5-14.8C444.5,123.1,437.9,109.6,439,108.6z
	 M438.7,410.6c0.5-1.7,2.4-11.4,4.2-21.7c1.8-10.3,4.8-22.9,6.7-27.9c3.1-8.6,14-27.5,15.8-27.6c3.3-0.1-0.5,34.7-5.4,49.3
	c-2.1,6.3-3.3,11.7-2.7,12.1c0.6,0.4,5.8-3.9,11.4-9.7c5.6-5.7,13.8-12.6,18.2-15.4c4.4-2.7,12.2-8.6,17.4-13l9.4-8l-1.2,7.9
	c-1.4,9.6-4.9,16.7-13.6,27.7c-8.1,10.3-20,18-35.5,23.2l0,0c-6.5,2.2-14.9,4.4-18.7,5.1C438.4,413.5,437.9,413.3,438.7,410.6z
	 M435,369.6v5.5c0,8.7-4.4,23.4-11.2,37.8c-3.5,7.3-6.3,13.6-6.3,14c0,1.6,8.4,0.3,20.8-3.1c7.4-2.1,17.6-4.6,22.6-5.7
	s12.4-3.7,16.5-5.8l7.3-3.9l-1.1,3.6c-2.9,9.5-14.9,20-31.7,27.7c-14.4,6.6-42.7,6.2-60.6-0.8l-4.6-1.8l4-4.3
	c5.9-6.4,11.7-16.1,15-25.7c3.3-9.4,16.2-27.3,24.1-33.3L435,369.6z M185.4,187.1c3.3-0.6,13.5-0.3,22.8,0.7
	c23.6,2.6,41.4,7.9,57.2,17.2l6.9,4l-4.9,5.5c-2.7,3-4.9,5.9-4.9,6.3s2.7-0.6,6-2.2c16.5-8.3,46.6-8.9,63.1-1.4
	c5,2.3,9.1,3.8,9.1,3.3s-1.5-2.9-3.3-5.5l-3.3-4.6l7.6-4.8c8.3-5.2,20.3-10.1,34.1-13.8c11.7-3.1,43-6.2,48.6-4.8
	c4.3,1.1,4.4,1.4,3.4,8.6c-1.8,12.4-10.2,44.5-14.5,55.1c-2.2,5.4-6.1,12.5-8.7,15.7l-4.7,5.8l6.3,6.8c7.8,8.4,20,31.8,18.6,35.6
	c-1.5,3.8-14.9,11.9-24.3,14.7c-4.4,1.3-16.3,2.8-26.5,3.4l-18.5,1l-1.2-5.4l-1.2-5.4l-2.4,7.9c-2.7,9-31.5,53-38,58.1l0,0
	c-6.4,5-18.1,4.7-24.5-0.7c-6.5-5.5-36.8-50.6-38.9-57.9l-1.6-5.8l-1.5,4.3c-1.2,3.6-2.2,4.2-5.8,3.6c-2.4-0.4-11.1-1.4-19.4-2.3
	c-8.3-0.8-17.8-2.3-20.9-3.2c-7.4-2.1-19-10.5-19-13.7c0-6.3,19.5-37.6,24.7-39.6c2.1-0.8,1.7-2-2.3-7.5
	c-8.1-11.2-18.1-42.4-23.1-72C179.5,188.4,179.6,188.2,185.4,187.1z M185.4,413.6c-8.1-16.1-14.9-43.6-10.8-43.6
	c0.9,0,6.4,5.2,12.1,11.5c8,8.7,11.8,14.7,16.1,25c5.6,13.3,15,28.1,18.8,29.5c3.1,1.2-6.1,4.2-20.8,6.7c-16,2.8-23.8,2.8-34.9,0.1
	c-15.4-3.7-34.5-17-39-27.1c-1.6-3.5-2.7-6.6-2.4-6.9c0.3-0.3,3.7,1.4,7.7,3.6s14.3,5.5,23,7.4c8.7,1.8,16.8,3.9,18.1,4.6
	c4.3,2.3,17.6,3.7,17.6,1.9C190.8,425.2,188.4,419.6,185.4,413.6z M133.1,402.6c-12.6-6.4-18.4-11.3-26-22.1
	c-7.7-10.9-10.5-17.9-10.5-26.2v-5.7l7.6,7.3c4.2,4,12.8,10.7,19.1,14.8c6.3,4.1,14.9,11.5,19,16.3s8,8.2,8.7,7.5s-0.6-6.7-2.9-13.2
	c-3.1-9.1-4.3-16.2-4.9-29.9c-0.4-9.9-0.4-18,0.1-18c1.3,0,11.2,15.8,14.4,23c1.6,3.5,3.6,9.6,4.5,13.6c1.8,7.9,7.7,40,7.8,42
	C170.1,415.1,145.6,408.9,133.1,402.6z M169.5,108.8c0.5,0.5-0.6,4.1-2.4,8.1c-3.7,8.4-14.3,20.3-26.5,29.6
	c-4.6,3.6-8.9,6.5-9.4,6.5c-1.4,0,6.3-17.2,10.9-24.1C145.8,123.2,167.8,107.1,169.5,108.8z M111,175.5c0-22.9,3.2-35.1,12.8-48.5
	c3.6-5,6.9-9.1,7.4-9.1c1.5,0-1.1,14-4.5,23.6c-4.3,12.3-6.4,23.8-5.2,28.5c1,3.8,1,3.9,3.2,0.7c4.7-6.7,34.6-27.2,36.7-25.2
	c0.5,0.5-1.1,4.6-3.6,9.1c-4.9,9-17.1,20.9-26.2,25.5c-3.2,1.6-9.2,5.5-13.2,8.6l-7.4,5.7C111,194.4,111,175.5,111,175.5z
	 M94.7,166.8c6.2-14,7.5-9.3,7.7,26.8c0.1,16.7,0.3,31,0.4,31.9s2.7-3.4,5.7-9.6c6.1-12.5,16.2-23.3,25.3-27.1l6.1-2.5l-1.1,3.7
	c-2.6,9.1-9.4,20.6-18.2,30.7l0,0c-5.2,6-12,15.3-15.2,20.6l-5.7,9.6l-4-8.7C84.5,217.2,84.1,190.8,94.7,166.8z M72.8,219.2l4.4,7.5
	c2.4,4.1,7.1,12.1,10.4,17.8c3.3,5.7,7.1,13.8,8.5,18.1c4.1,12.8,5.7,16.5,7.2,16.5c0.8,0,1.4-1.7,1.4-3.7c0-10.3,10.2-30.5,20-39.4
	l4.4-4l-1.1,10.9c-0.6,6-4.2,20.7-8,32.7s-7.5,24-8.3,26.7l-1.4,4.9L97,293.1c-18.7-19.9-24.3-34.1-24.2-61.8L72.8,219.2z"/>
<path id="XMLID_327_" class="st2" d="M596.6,508.6c-4.9,13.1-11.7,23.4-23.6,35.4c-23.2,23.5-50.3,34.8-136.4,57.2
	c-59.4,15.5-76.9,24.3-108.4,54.6c-9.5,9.1-18.1,16.6-19.1,16.6c-3.9,0-9.4-4.1-21.6-16.5c-28.4-28.6-50.8-39.9-109.4-55.1
	c-56.2-14.7-76.9-21.2-99-31.7c-28.2-13.3-44.7-28.6-56.7-52.9c-3.2-6.5-6-11.7-6.2-11.7c-0.7,0,2.8,16,6,26.6
	c9.3,31.7,31.6,57.2,62,71.2c20.7,9.5,42.7,16.5,95.9,30.4c42.1,11.1,61.2,18.3,80.1,30.3c7.7,5,26,21,32.2,28.4
	c2.5,3,6.8,6.8,9.5,8.5l0,0c2.7,1.6,5.9,3,7.1,3c1.2,0,9.9-7.5,19.4-16.6c32.1-31,46.9-38,120.6-57c18.5-4.8,58.2-17,68.6-21
	c22.9-8.9,45.2-23.9,56.1-37.5c9.2-11.5,17.7-29.4,22.2-46.6C599.7,508.3,600.3,498.6,596.6,508.6z"/>
<path id="XMLID_309_" class="st3" d="M35.1,373.2c0.4,94.8,0.5,98.6,3.8,111.4c6,23.2,15.6,39,30.3,50.2
	c17.5,13.3,42.9,22.8,107.7,40.2c44.2,11.8,57.2,16.2,74.9,24.9c16.1,8,26.5,15,41.1,27.6l11.9,10.3l9.8-9.1
	c27.1-25.3,53.3-37.2,122.3-55.1c66.7-17.4,92.3-28,110-45.6c13-12.9,20-27.9,24.8-53.5c2-10.5,2.4-27.1,2.2-94.3
	c-0.3-84.7,1.1-141.8,6.4-270.7c3.3-79.7,4-122.5,1.9-122.7c-0.7-0.1-15.9-0.4-33.9-0.8c-91.9-1.8-170.9-16.8-226.4-43
	c-14.9-7-20.5-8.4-23.4-5.6c-0.8,0.8-8.2,4.4-16.4,8C224.7-29.5,150-15.8,59.9-13.9c-18,0.4-33.3,0.7-33.9,0.8
	c-1.9,0.2-1.4,23.7,1.9,108C33.9,243.6,34.7,275.5,35.1,373.2z M77.3,286.2l13,12.8c7.4,7.3,16.8,18.8,21.9,26.8
	c4.9,7.7,9.1,13.8,9.3,13.6c0.2-0.2-0.2-4.7-0.8-10c-1.4-10.9,0.4-28.2,4-39.9c3.9-12.8,4.9-13.4,7.8-4.6c4.2,12.7,4.8,24.1,2,38.7
	c-1.4,7.3-2.5,19-2.5,25.9s-0.6,12.6-1.3,12.6s-3.4-2.2-6-4.9c-2.6-2.7-7.2-6.4-10.3-8.2c-19-11.3-32.5-32-35.8-54.7L77.3,286.2z
	 M439.8,463c-28,13.4-51.7,12.3-90.9-4.4c-5.7-2.4-14.5-4.7-19.9-5.1l-9.7-0.8l12,7.8c6.6,4.3,16.5,12,22,17.1
	c9.6,8.9,9.9,9.4,7.3,12.3c-4.2,4.6-7.3,3.6-15.8-5.1c-8.9-9.1-31.2-24.6-37.8-26.3c-3.3-0.8-6.6,0.2-13.6,4.1
	c-10.8,6.1-27.3,18.9-33,25.6l0,0c-2.2,2.6-5,4.7-6.3,4.7c-3.1,0-7.7-4.6-7-7c1-3,23.2-21,33.7-27.3l9.8-5.9l-10.4,0.8
	c-6.6,0.5-14.7,2.6-22.3,5.8c-22.9,9.7-29.3,11.4-44.7,12.3c-17.2,1-30.1-1.5-44.7-8.7l-8.8-4.3l13.6-1.1c8-0.6,21.7-3.5,33.5-7
	c11-3.2,23.9-7,28.7-8.4c12.6-3.6,40.3-3.1,56.4,1.1l12.5,3.3l13-3.4c16.1-4.2,43.9-4.7,56.1-1c35.6,10.8,49.6,14.3,61.4,15.4
	l13.6,1.3L439.8,463z M520,323.9c-5.6,8.1-17.8,20-25.9,25.4c-3.1,2-7.9,5.9-10.8,8.5l-5.2,4.8l-0.2-7.9c-0.3-11.7-0.8-17-3-28.8
	c-3.1-16.5,0.1-48.6,4.9-48.6c0.5,0,2.7,5.9,4.8,13.2c3.1,10.7,3.9,16.6,3.8,31.1l-0.1,18l7.2-12.4c8.7-14.9,35.3-42.3,35.3-36.4
	C530.7,298.5,524.6,317.2,520,323.9z M533.2,224.4c2.2-5,2.3-4.5,2.3,10c0.1,16.4-3.5,32.7-8.9,41.1l0,0c-1.7,2.6-8.9,11-16,18.6
	l-13,13.8l-1.1-5.9c-0.6-3.2-3.9-14.6-7.4-25.2c-6.4-19.6-10.8-41.6-8.7-43.7c3.2-3.1,19.9,22.9,22.3,34.8c2.7,13.5,4.1,13.9,7.3,2
	c2.5-9.1,11.6-28,17-35.1C529.1,231.9,531.9,227.3,533.2,224.4z M505.3,226.4c0.5,0,1-13.8,0.9-30.7c0-17.6,0.7-32.4,1.6-34.7l1.6-4
	l3.3,6.4c6,11.7,8.9,24.8,8.9,39c-0.1,14.9-1.8,22.9-8,37.9l0,0c-2.3,5.5-4.6,10-5.1,10s-2.9-3.8-5.3-8.4s-8.6-13.2-13.7-19.1
	s-11.3-14.4-13.7-18.8c-4.7-8.7-7.8-17.5-6-17.5c0.6,0,4.8,2.2,9.4,4.8c9.6,5.5,18.5,16.4,22.4,27.4
	C503.1,222.9,504.8,226.4,505.3,226.4z M482.9,124.3c10.2,11.5,16.1,30.5,15.7,50.9c-0.1,5.8-0.6,12.5-1.2,14.8l-1,4.2l-5.6-4.7
	c-3.1-2.6-9.4-6.9-14.2-9.6c-4.7-2.7-11.9-8.2-16-12.3c-7.9-7.9-15.7-21.4-12.8-22.4c2.4-0.8,25.3,14.6,31.8,21.3
	c3,3.1,6,5.6,6.7,5.6c3.3,0,1.1-15.1-4.8-31.9c-1.7-4.8-3.5-12-4.1-16l-1-7.2L482.9,124.3z M438.9,108.6c1.2-1.2,15.1,7.5,21.9,13.6
	c3.6,3.3,8.6,10.6,11.9,17.4c3.1,6.5,5.4,12.4,5.1,13.1c-0.6,1.6-13.4-8.2-23.3-17.9C448.2,128.8,437.2,110.3,438.9,108.6z
	 M451,356.4c3.7-8.7,12.8-23,14.7-23c3.7-0.1-1,37.9-6.5,52.2c-1.8,4.6-2.7,8.7-2,9.1s5.4-3.6,10.6-8.9s14.6-13.1,20.8-17.4
	c6.3-4.3,12.4-8.7,13.6-9.8c1.2-1.1,4.3-3.9,6.8-6.1l4.5-4l-1.1,8c-1.6,10.9-7.9,22.2-18.4,32.8c-10,10.1-21.6,16.3-38.6,20.7
	c-11.5,3-17.3,3.8-17.3,2.4C438.2,407.3,448.5,362.3,451,356.4z M434.9,378.4c-1.8,13.2-4.6,21.8-11.2,35.2
	c-7.3,14.6-6.7,15.5,8.4,11.4c5.6-1.5,16-4,23.1-5.6c7.2-1.6,16.7-4.7,21.1-7c8.9-4.5,10.1-3.4,5.1,4.9
	c-4.3,7.1-15.5,15.7-27.8,21.5c-8.4,3.9-13.4,5.1-23.1,5.6c-12.3,0.6-31.8-2.2-40.4-5.7l-4.5-1.9l4.8-4c2.7-2.2,7.6-10.1,11.2-17.8
	c3.5-7.6,7.6-16.2,9-19.1c3-6.1,21.1-25.8,23.7-25.8C435.5,370,435.7,372.8,434.9,378.4z M203.4,266c-2.3-2.9-6.2-10.4-8.6-16.5
	c-5.3-13.6-13.3-45-13.9-55l-0.4-7.3l17.6,0.3c9.7,0.2,22.7,1.4,29,2.7c13,2.7,33.9,10.7,40.7,15.6l4.6,3.3l-4.1,4.9
	c-4.1,4.8-4.3,8-0.4,4.9c3.1-2.4,17-6.4,26.2-7.5c10.4-1.2,29.4,1.4,38.4,5.4c7.5,3.3,8.5,2.8,4.2-2c-2.7-2.9-2.6-3.2,1.2-6.3
	c7.4-6,22.8-12.7,37.7-16.5c15.4-3.9,43.7-6.7,50.6-4.9l4,1l-3.8,18c-6.9,32.6-15.3,55.7-22.9,62.5l-3.4,3.1l4.6,4.9
	c6.4,6.9,13.5,17.7,18.2,28l4,8.8l-4.2,4.4c-9.2,9.8-26.2,14.8-53.6,15.8l-12.6,0.5l-1.9-5.6l-1.9-5.6l-1.2,6.9
	c-1.3,7.6-25.5,45.9-35.7,56.5l0,0c-5.2,5.4-6.5,6-14.1,6c-7.1,0-9.3-0.8-13.8-4.8c-7.5-6.6-37.1-50.6-38.6-57.5
	c-1.2-5.3-1.3-5.4-2.3-1.6s-1.6,4-10.5,3.5c-27-1.3-41.1-5.1-51.4-13.8l-5.2-4.4l7.3-14.1c4-7.8,10.3-17.3,14-21.3l6.7-7.1
	L203.4,266z M187.7,419.1c-5.6-9.5-12.5-30.5-13.6-41.3l-1-10.2l11.4,11.7c8.2,8.4,12.8,14.8,16.2,22.3c8.5,19.1,11.3,24,16.7,29.6
	c3,3,4.8,5.9,4.2,6.3c-0.7,0.4-5.8,1.9-11.3,3.4c-12.4,3.2-33.7,4.4-43,2.4c-7.6-1.6-24.5-10.5-32.2-17c-4.7-4-12.2-16.1-10.7-17.5
	c0.4-0.4,3.8,1.1,7.7,3.3c3.9,2.2,11,4.8,15.8,5.8s15.8,3.6,24.4,5.9C190.2,428.7,192.8,427.9,187.7,419.1z M166.5,413
	c-5.2-0.1-26.2-6.7-35.5-11.1s-22.3-17.1-28.6-27.8c-4-6.9-8.2-24.8-5.7-24.8c0.6,0,3.1,2.2,5.7,4.9c2.6,2.7,11,9.3,18.8,14.6
	c7.8,5.3,17.4,13.5,21.4,18.1s7.8,8.1,8.5,7.7c0.6-0.4-0.6-6.3-2.9-13.1c-3.9-11.8-6.4-34.9-5-45.1c0.5-3.6,1.2-3,6.8,5.4
	c8,12,12.6,25.7,16.8,49.1c1.8,10.3,3.3,19.4,3.3,20.3C170.1,412.4,168.5,413.1,166.5,413z M169.5,108.8c1.4,1.4-5.1,14.2-10.4,20.9
	c-2.8,3.4-9.8,10.1-15.7,14.8s-11.3,8.5-11.9,8.5c-1.6,0,5.8-16.8,10.9-24.4C146.1,122.8,167.8,107.1,169.5,108.8z M125,125.1
	c5.6-7.6,6-7.8,6.4-3.9c0.3,2.3-1.6,10.9-4.2,19.2c-8,25.5-8,36.1-0.1,27.6c7.5-8,32.5-24.4,34.5-22.5c0.4,0.4-1,4.3-3.3,8.7
	c-4.2,8.2-17.2,21.2-25.6,25.4c-2.7,1.4-8.6,5.2-13,8.6l-8.2,6.1l-1-11C108.4,161.8,113.9,139.9,125,125.1z M94.7,166.8
	c6.2-14,7.5-9.3,7.7,26.8c0.1,16.7,0.3,31,0.5,31.9c0.1,0.9,2.6-3.5,5.6-9.7c2.9-6.2,7.9-13.9,11.2-17.1
	c5.7-5.7,18.1-13.2,19.6-11.8c1.6,1.6-6.3,18.5-12.2,25.9c-3.5,4.4-9.4,12-13.2,17l0,0c-3.7,4.9-8.3,11.7-10.2,15.1l-3.4,6.1
	l-4.2-8.3C84.7,220.3,84.1,190.8,94.7,166.8z M72.9,219.2l3.4,6.4c1.8,3.5,5,8.5,6.9,11.2c5.3,7.1,12.7,22.7,15.7,33.1
	c1.5,5,3.2,9.2,4,9.2c0.7,0,1.8-3.4,2.4-7.6c1.2-8.9,9.2-24.8,16.5-33c2.8-3.1,5.5-5.7,6-5.7c1.4,0,0.9,11.4-0.8,19.2
	c-0.9,3.9-4.5,16.5-8.1,27.9s-7,22.2-7.5,24c-0.9,2.8-2.7,1.5-14.1-10.5c-7.2-7.6-14.5-16.8-16.4-20.4c-5-9.9-8.1-25.1-8-40.2V219.2
	z"/>
<path id="XMLID_307_" class="st4" d="M409.5,392.8c0,1.1,0.5,1.2,1.3,0.3c0.7-0.8,4.8-5.3,9-9.9s6.5-8,5-7.4
	c-1.7,0.7-4.1-0.3-6.5-2.5c-5.6-5.3-8.2-2.5-3.2,3.5c3.9,4.6,4,5,1.4,7.9c-2.7,3-2.8,2.9-7.1-1.2c-6-5.7-9.2-3.5-3.9,2.8
	C407.6,388.9,409.5,391.8,409.5,392.8z"/>
<path id="XMLID_305_" class="st4" d="M432.1,370.6c2.6-2.4,2.4-2.8-3.5-7.1c-3.5-2.5-6.7-4.6-7.1-4.6c-2,0-0.5,3.8,3.5,8.8
	C429,372.7,429.5,372.9,432.1,370.6z"/>
<path id="XMLID_283_" class="st4" d="M26.4,42.1c1.7,35.6,5.3,132,8.1,217c1.1,32.1,1.5,83.9,0.9,121.7c-0.9,67.3,0,88.9,4.8,106.5
	c8.6,32.1,25,49.6,59.6,63.5c15.2,6.1,51.1,16.9,86.1,26c31.3,8.1,52.2,15.4,69.7,24.6c15.1,7.9,34.6,21.7,42.7,30.3
	c2.6,2.7,4.9,4.9,5.2,4.9c0.3,0,5.7-4.4,12.1-9.8c30.7-26,51.4-35.4,114.5-51.9c31.8-8.3,57.5-16,73.3-21.9
	c39.6-14.9,57.3-33.6,65.8-69.4c3.1-13.1,3.3-20.2,4.5-145.4c0.6-72.4,1.6-138.5,2.2-146.8c2-30.8,7.4-170.2,7.4-191.7v-12.1
	l-38.7-1C448.2-16,380.2-29.4,318-58.1l-14-6.5l-15.5,7.4c-35.3,16.8-76.7,28.5-127.2,36c-31.7,4.7-55.2,6.6-98.5,7.7l-37.9,1v11.3
	C24.9,5,25.6,24.5,26.4,42.1z M77.5,290.5c0-4.7,0.4-4.4,13.6,8.6c7.5,7.4,17,18.8,21.2,25.4l7.6,12l0.1-18
	c0.1-14.4,0.8-20.3,3.7-29.1c4.6-13.9,4.9-14.5,6.7-11.3c5.6,9.9,8,34.9,4.4,45.2c-0.9,2.6-2.2,12.9-2.8,22.8
	c-1,15.9-1.4,17.8-3.4,15.4c-1.2-1.5-8.1-6.9-15.2-12.1c-12.8-9.3-22-18.8-27.9-29.1C82,314.1,77.5,297.5,77.5,290.5z M100.2,371.3
	c-3.3-6.7-6.7-23.6-4.8-23.6c0.4,0,4.5,3.6,9.1,8s10.6,9.2,13.4,10.6c6.5,3.3,16.8,11.6,26,21.1c4.8,4.9,7,6.3,6.4,4.2
	c-0.5-1.8-2.4-8.2-4.2-14.4c-3.5-11.7-6.1-38.4-4.2-43.2c0.9-2.3,2.1-1.5,6.8,5c8.9,12.3,13.2,23.5,17.3,45.2
	c2.1,11.1,4.3,22.4,4.9,25.3l0,0c1.3,6,1.2,6-12.9,2.6c-21.1-5.1-31.2-10.2-43.1-22.2C108.9,383.8,102.2,375.4,100.2,371.3z
	 M123.8,409.4c0-1.8,2-1.3,8.4,2.2c4.6,2.5,13.4,5.4,19.6,6.5c6.1,1.1,15.1,3.3,19.8,4.9c4.7,1.6,10.9,3,13.7,3h5.1l-5.5-11.4
	c-6.8-14.2-9.3-21.6-11.7-34.8c-2.8-15.2-2.9-15.6-4.9-12.7c-1.4,2.1-1.5,2-0.9,0c0.4-1.3-0.4-3.8-1.8-5.6c-3.2-4,7.3,5.2,19.1,16.9
	c10.8,10.7,15.5,17.9,20.6,31.7c2.1,5.7,6.9,14.2,10.8,18.9c3.8,4.7,6.7,8.9,6.2,9.3c-0.4,0.4-4.6,1.8-9.3,3.2
	c-12.2,3.4-41.9,4.4-50.3,1.6C144.6,436.9,123.8,419,123.8,409.4z M223.7,421.6c-1.7,0.6-2.3,0.4-1.7-0.6c1.2-1.9-2.2-6.6-4-5.5
	c-0.6,0.4-2.5-0.4-4.2-1.7c-1.7-1.4-2-1.9-0.8-1.3c1.5,0.8,1.9,0.5,1.1-0.8c-0.9-1.5-1.7-1.5-3.4-0.1c-1.8,1.5-2.7,0.7-4.7-4.3
	c-1.3-3.4-3.6-8.3-5-11c-1.4-2.6-2.3-4.4-1.9-4c0.4,0.4,7.8,8.2,16.5,17.2s15.4,16.4,14.8,16.4c-0.6,0-1.5-0.7-2-1.6
	s-1.8-1.1-2.7-0.6c-1.1,0.7-1.3,0.3-0.4-1C226.1,421.1,225.7,420.8,223.7,421.6z M444.6,461.3c-25.1,14.8-60.8,15-89.7,0.3
	c-7.9-4-24.7-8.5-31.6-8.5c-3.2,0-2.3,0.9,4.8,5c8.9,5,27.2,19.2,32.7,25.2c2.9,3.2,2.9,3.4-0.8,7.3c-2.1,2.2-4.5,4-5.4,4
	s-6-4.4-11.3-9.7c-9.3-9.5-27.3-22.4-35.1-25.4c-6.2-2.4-23.9,7.7-39.8,22.6l0,0c-7.3,6.9-13.7,12.5-14.2,12.5s-2.8-1.6-5.1-3.7
	l-4.3-3.7l7.8-7.4c11.4-10.8,22.4-19.1,33.3-25c9.6-5.2-17.7,0.5-30.8,6.4c-32,14.5-60.8,15.1-87.7,1.8c-4.6-2.3-8.4-4.7-8.4-5.3
	s7.4-1.5,16.4-2c11.9-0.6,20.7-2.2,32.3-5.9c35.1-10.9,38.6-11.6,57.5-10.8c9.7,0.4,22.5,2,28.6,3.6c10.7,2.8,11.3,2.8,22.3-0.2
	c16.8-4.5,50.5-4.1,64.8,0.7c27.9,9.5,38,11.9,54.3,12.8l16.8,1L444.6,461.3z M513.2,354.1c0,8.2-4.1,18.2-11.4,27.6
	c-12.3,16-23.6,22.8-50,29.9l0,0c-13.7,3.7-13.6,3.7-13.6,0.5c0-4.2,6.2-37.5,8.7-46.8c1.3-4.8,1.9-9.4,1.4-10.2
	c-0.5-0.9-0.2-1.1,0.8-0.5s3-1.7,4.9-5.7c1.7-3.8,5.4-9.3,8.2-12.4l5.1-5.6l-0.7,19.2c-0.6,15.2-1.6,21.6-4.9,31
	c-2.3,6.5-4.1,12.5-4.1,13.2c0,0.8,4.8-3.6,10.8-9.7c5.9-6.1,15.1-13.8,20.3-17c5.3-3.3,13-9.2,17.2-13.2l7.6-7.3L513.2,354.1z
	 M523.7,318.6c-5.1,10-16.5,22.5-26.9,29.7l0,0c-4.6,3.1-10.9,7.8-14,10.4l-5.6,4.7l-0.4-13.8c-0.2-7.6-1.2-16.7-2.2-20.2
	s-1.8-13.6-1.8-22.3c0-13.1,0.6-17.4,3.5-23.8c1.9-4.3,3.9-7.5,4.3-7c0.5,0.5,2.7,7.5,4.9,15.7c3.4,12.3,4,17.6,3.5,30.3
	c-0.4,12.4-0.2,14.9,1.4,12.9c1.1-1.4,2-3.1,2-3.7c0.1-3.4,15.2-22.6,26.3-33.4c7-6.9,12.9-12.2,13.1-12
	C533.2,287.4,527.1,312,523.7,318.6z M532.3,224.5l3-6.7l1.2,6.2c1.7,8.8-1.6,33.3-5.9,44.5c-2.6,6.7-6.6,12.4-13.9,19.9
	c-5.6,5.8-12.3,13-14.8,16.1c-2.9,3.6-4.6,4.7-4.6,3.1c-0.1-2.7-4-16.2-11.4-38.8c-4.2-12.9-8-37.7-5.7-37.7c0.5,0,3.5,2.7,6.6,6
	c7.7,8.1,15,22.2,17.2,33.2c1.7,8.6,1.9,8.9,3.9,5.3c1.1-2.1,2.1-5.2,2.1-7c0.1-4.2,10.3-25.5,15.4-32.3
	C527.5,233.5,530.6,228.2,532.3,224.5z M504.7,224.2c0.6-0.6,1.1-14.9,1.2-31.8c0.1-19.9,0.7-31.8,1.9-33.8c1.7-2.8,2.1-2.6,5,3.2
	c7.2,14.3,9.1,23.2,9,42.2c-0.1,16-0.6,19.7-4.3,29.1c-2.3,5.9-5.1,12.2-6.2,14c-1.1,1.8-2.5,3.2-3.1,3.2s-3.4-4.1-6.2-9.2
	c-2.8-5-9-13.5-13.7-18.8c-7.7-8.7-19.7-29.4-19.7-34c0-5.1,12.2,1.1,21.3,10.8c7.4,7.9,13.8,18.8,13.8,23.4
	C503.6,224.1,504.1,224.8,504.7,224.2z M477.7,117.9c4.3,0,15.8,20.4,19.4,34.3c1.8,6.9,2.3,35.6,0.7,39.8c-1.2,3.2-2.9,3.2-5.6-0.1
	c-1.2-1.5-7.9-6.4-15-11c-7-4.6-15.4-11.1-18.6-14.5c-9.2-9.7-16-24.6-10.4-22.5c5.2,2,25.1,15.7,31.1,21.4l6.6,6.3v-8
	c0-4.4-1.8-13.2-4-19.6C477.3,130.3,475.3,117.9,477.7,117.9z M458.9,248.8c0,0.8-0.6,1.5-1.3,1.5c-0.7,0-1.3-1-1.3-2.3
	s0.6-2,1.3-1.5S458.9,248,458.9,248.8z M443,109.1c18,9.3,27.7,20.4,34.4,39.3c1.2,3.4,1.6,6.2,0.8,6.2c-1.5,0-15.2-10.5-23.2-17.8
	c-5.6-5.1-14.5-19.4-16.1-25.8l-1.1-4.5L443,109.1z M439,209.2c4.4,4.6,5.8,6.6,3.3,4.4l-4.6-4l3,4.8c1.6,2.6,3.7,5.3,4.6,6
	c1.1,0.8,1.1,1.2,0,1.2c-0.9,0-0.6,0.7,0.6,1.4l0,0c1.2,0.8,1.5,1.8,0.7,2.3s-5.2-2.8-9.7-7.4c-5.9-5.9-8.3-9.6-8.3-12.7
	c0-2.4,0.6-4.3,1.3-4.3S434.7,204.6,439,209.2z M366.6,144.6c1.3,1.1,3,1.4,3.7,0.8s0.8-0.3,0.2,0.8c-1.1,2,0.5,2.6,5.4,2.1
	c1.3-0.1,10.6,8.1,20.7,18.2l18.3,18.4l-6.4-0.2c-5.9-0.2-7.6-1.5-23.9-18.4C368.8,149.7,359.9,139.1,366.6,144.6z M192.4,179.3
	c0.9-0.6,1.1-1.9,0.6-2.9c-0.6-1,1.4,0.3,4.4,2.9s5.7,5,6.1,5.2l0,0c0.4,0.2-2.3,0.4-6,0.4c-4.7,0-6.6-0.7-6.6-2.3
	C190.8,181.3,191.5,179.8,192.4,179.3z M173.7,202.5c1.4,0,3.1-0.8,3.7-1.8c0.8-1.2,0.4-1.4-1-0.6c-1.4,0.9-1.7,0.7-0.9-0.7
	c1.4-2.3,3.5-0.6,4.5,3.9c0.4,1.8,0.4,0.3,0.1-3.2c-0.4-3.5-1.1-8-1.6-10c-0.9-3.6-0.7-3.6,16.2-3.6H212l-6.8-7.4
	c-5.9-6.4-6.5-7.6-4.2-8.9c1.5-0.8,2.1-2.3,1.5-3.4c-0.6-1,2.9,1.5,7.8,5.8c9.9,8.4,14.6,7.7,6.6-1c-2.6-2.8-5.6-6.3-6.7-7.8
	c-1.8-2.4-1.6-2.6,1.4-2.1c2.7,0.5,3.3,0.1,2.4-2.1c-0.6-1.7,1-0.9,4.2,2.1c10.4,9.5,12.5,10.9,14.1,9.4c0.9-0.9-0.1-3.3-2.8-6.3
	c-9.7-10.8-10.1-11.4-7.6-11.4c1.3,0,1.9,0.7,1.4,1.6c-0.6,0.9-0.2,1.1,1,0.4c1.1-0.7,1.5-2.3,1-3.7s3,0.9,7.7,4.9
	c12.4,10.6,15.9,10.2,7.2-0.7c-2.7-3.4-4.4-6.2-3.8-6.2c0.6,0,0.2-1.3-1-2.8c-1.8-2.4-1.8-2.5,0.1-0.8c3.3,3,5.5,2.4,3-0.8
	c-1.2-1.5,1.6,0.3,6.2,4.1c4.6,3.8,8.8,7.5,9.2,8.3c0.5,0.8,1.9,1,3.2,0.5c1.8-0.7,0.8-2.7-4.1-8.6c-5.9-7.1-6.2-7.8-3.5-9.3
	c2.4-1.3,4.7-0.1,12.2,6.3c13.6,11.6,16.4,10.7,5.8-1.8c-4.9-5.8-5.8-7.7-4-8.4c1.3-0.5,2.4,0,2.4,1c0,1.4,0.4,1.3,1.4-0.2
	c1-1.7,3.5-0.2,10.4,6c4.9,4.5,10.2,8.1,11.6,8.1c2.9,0,2.1-1.3-8.1-12.3c-2.6-2.8-4.2-5.7-3.6-6.3s2-0.3,3,0.8
	c2.9,2.9,5.1,2.2,2.6-0.8c-3.8-4.6,1.7-0.7,10.3,7.4c8.9,8.4,11.6,10.1,14.3,9.3c1.1-0.4-2.3-5.1-7.6-10.8c-5.3-5.6-8.5-9.5-7.2-8.7
	s3.7,1.2,5.2,1c1.5-0.3,2.8,0.3,2.8,1.3s0.7,1.3,1.6,0.8c0.9-0.6,6.7,3.7,13,9.5s11.7,10.2,12.2,9.7s2,0.1,3.4,1.1
	c3.7,2.8-2.2-4.3-11.6-14.3c-6.3-6.7-7.2-8.1-4.2-7.3c2.9,0.7,3.4,0.5,2.5-1.3c-0.6-1.2,0-0.9,1.3,0.9c1.6,2,2.5,2.3,2.5,1
	c0-1.2,6.3,3.9,14,11.4c7.7,7.4,16.4,14.7,19.3,16.1c5,2.5,5.2,2.5,3.3-0.1c-1.1-1.5-6.6-7.4-12.1-13.1c-8-8.2-9.7-10.9-8.3-12.8
	c1.4-2,1.6-1.9,0.8,0.4c-1.2,3.6,0.4,3.6,3.3,0c1.3-1.5,1.9-2,1.4-1c-0.9,1.8,2.1,5.4,4,4.8c0.5-0.1,12.4,10.7,26.3,24.1l25.3,24.3
	h15.6c8.6,0,15.6,0.5,15.6,1.2s-1.1,6.9-2.4,13.9l-2.4,12.7l13.4,13.6c7.4,7.5,14,15.4,14.6,17.6s1.9,4.9,2.8,6s1.2,2.5,0.6,3.1
	c-0.9,0.9-21.8-17.8-23.1-20.6c-0.3-0.7-1.2-1.2-2-1.2c-3.1,0,3.4,9.2,15.9,22.5c10.2,10.9,12.5,14.1,10.9,15.8
	c-1.1,1.1-1.2,1.7-0.3,1.2s1.6,0.8,1.6,2.8c0,3.3-1.2,2.6-9.8-5.7c-5.4-5.2-10.2-9.4-10.6-9.4s-0.4,1.4,0,3.1c0.8,3.2,3.1,6,13.6,17
	c4.5,4.7,6.3,8.1,6.6,12.4l0.5,5.9l-6.5-6.1c-10.3-9.7-12.1-10.8-12.1-7.6c0,1.5,4,6.9,8.8,11.9c6.5,6.8,8.5,10,7.7,12.1
	c-0.8,2-0.5,2.5,0.8,1.7c1.2-0.8,1.7,0.2,1.5,2.8c-0.3,3.8-0.7,3.7-8.8-4c-4.6-4.4-9.2-7.5-10-7c-2.3,1.4-2.4,1.4,7.3,12.3
	c4.9,5.5,8.2,10.2,7.3,10.5c-1.1,0.4-1.1,1.9,0,4.8c1.5,3.9,1,3.7-5.3-2.2c-9.8-9.2-12-10.7-13.2-8.9c-0.5,0.9,3,6,7.8,11.4
	c7.4,8.3,8.5,10.3,7.1,13c-1.6,2.9-2.1,2.8-8.7-3.4c-11.6-10.7-14.6-7.5-3.9,4.1c5.9,6.4,7.8,11.4,5.4,13.8
	c-0.5,0.5-4.4-1.8-8.5-5.3s-8-6.3-8.6-6.3c-2.7,0-0.5,4.6,5.3,11.1c3.5,3.9,5.8,7.5,5.1,8c-0.7,0.5-1.4,3.4-1.7,6.5
	c-1.2,14.5-5.9,29.7-13.9,44.9c-2.1,4.1-3.9,7.9-3.9,8.5c0,3.9,52.4-9.4,61-15.5l4.4-3.1v3.7c0,9.4-17.3,24.5-36,31.5l0,0
	c-6.7,2.5-12.2,3.3-22.7,3.1c-7.6-0.1-15.3-0.5-17.1-0.8c-10.5-2.1-23.1-5.9-23.1-6.9c0-0.6,1.8-2.9,4.1-5
	c5.3-5,10.2-12.9,14.6-23.6l3.5-8.6l-4.9-4.2c-6.7-5.7-8.9-6.9-9.9-5.2c-0.5,0.8,1.6,4.3,4.7,7.9c4.4,5.2,5.3,7.2,4.2,10.1
	c-1.3,3.5-1.5,3.5-8.6-3c-12.5-11.5-15.1-7.9-3.4,4.6c4.1,4.4,6.1,7.5,4.5,6.8c-2.2-0.9-2.6-0.6-1.6,1.1c1.1,1.9,0.9,1.9-1.1,0.3
	c-1.3-1.1-2.9-1.5-3.5-1c-0.6,0.6-4.3-2-8.3-5.7s-8-6.2-8.9-5.7c-1.9,1.1-0.5,3.3,7.6,12l5.3,5.7l-5.4-0.1
	c-3.9-0.1-7.2-1.7-12.1-6.2s-7.3-5.7-8.5-4.4c-1.3,1.3,0.2,3.7,5.3,8.9c5.2,5.3,6.3,7.2,4.2,7.2c-1.6,0-2.4,0.7-1.9,1.5
	c2.2,3.6-4.5,0.2-9.9-5c-5.3-5.1-14.7-10.5-14.7-8.3c0,0.4,2.9,3.9,6.4,7.7c4.2,4.6,6.1,7.8,5.4,9.5c-1.5,4-3.5,3.2-12.7-5.2
	c-14.1-12.9-19.9-11.7-6.3,1.4l5.8,5.6l-4.5,0.9c-3.7,0.7-6-0.5-12.9-6.3c-12.9-11-18.2-10.5-6.8,0.6c3.5,3.4,6.4,6.7,6.4,7.3
	s-1.7,1.4-3.7,1.8c-2.8,0.5-6.3-1.7-14.6-9.2c-13.6-12.4-19-12.2-7.3,0.2c16.2,17.2,5.6,15.7-13.8-1.9c-15.9-14.4-22-15.5-9.1-1.5
	c4.8,5.2,8.4,9.7,8,10.1c-0.4,0.4-3.3,0-6.4-0.9c-3.7-1-10.3-6-18.9-14.3c-7.3-7-17.9-16.1-23.6-20.3l-10.4-7.5l10.4,11
	c5.7,6,14.5,15.3,19.5,20.5c9.1,9.5,9.1,9.6,4.5,9.6c-2.5,0-5.2-0.6-5.9-1.3s0.1-0.7,1.9-0.1c2.8,1.1,2.9,0.9,0.9-1.6
	c-1.2-1.5-3.3-2.4-4.6-1.9c-1.5,0.6-17.6-14.4-47-43.8c-38-38-44.6-45.2-43.8-48.3c0.7-2.5-0.3-5-3.4-8.4
	c-3.9-4.4,3.9,2.7,28.9,26.3c8.9,8.4,11.7,8.5,5.1,0.2c-3.1-3.9-24.4-27.3-26.4-28.9c-2.9-2.4-13-14.8-10.4-12.8
	c2.9,2.3,2.9,2.2,1.1-1.2c-1.1-2-1.4-3.6-0.9-3.6c0.6,0,0.1-1.3-1.1-2.8c-1.7-2.3,5.2,2.9,8.1,6.1c0.4,0.5,4.2,4,8.5,7.8
	c7.1,6.5,7.5,6.7,5.9,2.5c-0.9-2.5-7.5-10.8-14.6-18.6c-10.1-11.1-12.3-14.3-10.3-15.1c2.2-0.8,2.2-1.4,0.6-3.6
	c-1.9-2.4-1.8-2.4,1.1-0.2c1.7,1.3,6.4,5.5,10.4,9.2c5.4,5.1,7.3,6.2,7.7,4.3c0.3-1.4-4.6-8.3-11.2-15.6
	c-6.4-7.2-10.6-12.2-9.2-11.1c2.1,1.6,2.5,1.5,2.3-0.8c-0.1-1.5-0.8-3.8-1.6-5.1c-2-3.2,7,3.5,12.6,9.4c5,5.3,7.3,6.2,7.3,2.9
	c0-2.1-3-5.8-15.8-19.3c-5.3-5.6-6.1-7-2.9-5c4.8,3,5.4,2.4,2.6-2.8c-1.5-2.7-0.6-2.4,4.5,1.6c3.5,2.8,7.3,6.1,8.4,7.5
	c1.1,1.3,2.7,2.5,3.4,2.5c3.4,0,0.7-5-7.8-14.5c-5-5.6-7.8-9.2-6.1-7.9c2.8,2.2,3,2.1,2.1-0.3c-1.9-5,3.2-4.3,8.5,1.2
	c9.6,9.9,11.4,4.6,2-5.8c-5.1-5.7-8.7-13.9-5-11.7c0.7,0.4,1.3-0.1,1.3-1.2s2.3,0.2,5.2,2.8c8.7,8,10.2,8.9,10.2,6.1
	c0-1.4-3.1-6-6.9-10.2c-7.3-8.1-8.2-9.9-4.9-9.2c1.1,0.2,1.8-0.5,1.6-1.6c-0.6-3.2,1.2-2.4,7.9,3.7c3.5,3.1,6.7,5.3,7.2,4.9
	c0.5-0.5,0.3-3.5-0.3-6.8c-0.7-3.5-1.6-5.2-2.3-4.1c-0.8,1.3-2.6,0.4-5.8-2.9C172.2,203.6,171.7,202.5,173.7,202.5z M163.5,110.2
	l6.5-3.6v3.4c0,8.6-11,22.6-29.7,37.9c-12.3,10-12.8,9.1-4.9-8.2C141.1,127.5,150.8,117.3,163.5,110.2z M126.7,122.3
	c2.2-2.4,4.7-4.4,5.4-4.4c1.9,0-0.1,9.7-5.4,26.1c-2.5,7.8-4.6,17.3-4.6,21.2v7.1l6-5.8c7.8-7.6,32-23.5,34-22.3
	c2.5,1.6-6.2,16.6-14.3,24.8c-4.2,4.2-11.3,9.5-15.8,11.8s-10.6,6.3-13.6,8.9s-5.8,4.8-6.3,4.8c-1.7,0-2.7-7.8-2.7-21
	C109.4,153.1,115.8,134.1,126.7,122.3z M94.6,165.3c4.3-9.6,6.8-11.6,6.9-5.6c0.1,2,0.7,9.7,1.5,17.2c0.8,8,0.7,19.9-0.2,29.2
	c-0.8,8.6-1,16.4-0.4,17.4s3-2.4,5.4-7.7c6.5-14.4,17.1-25,28.3-28.4c2.9-0.9,3.6-0.5,3.6,2c0,5.1-9.2,21.1-17.7,30.9
	c-4.4,5-11.1,14.3-15,20.6l-7.1,11.5L95,242C83.3,217,83.2,191,94.6,165.3z M74.5,219.3c0.8,0.5,1.4,2,1.4,3.3s2.8,6.5,6.2,11.5
	c8.2,12.1,12.1,19.9,16.2,32.7c3.3,10.2,6.4,12.8,6.4,5.4c0-5.2,5.9-19.8,11.1-27.3c6.4-9.3,12.2-14.5,13.2-11.8
	c1.6,4.3-2.4,24.8-8.5,43.4c-3.5,10.6-6.8,22.3-7.3,26.1c-0.5,3.7-1.5,6.8-2.1,6.8s-3.2-2.9-5.6-6.4c-2.5-3.5-6.7-8.4-9.4-10.8
	c-13.8-12.1-20.7-25.8-23.4-46.4C70.9,233,72,217.8,74.5,219.3z"/>
<path id="XMLID_282_" class="st5" d="M504.7,274c1.3,4.7,3.5,2.6,4.6-4.5c0.6-3.8,0.4-4.6-0.5-2.4c-1.4,3.1-1.4,3.1-3.2,0
	c-1.8-3.1-1.8-3.1-1.8,0.1C503.7,268.8,504.1,271.9,504.7,274L504.7,274z"/>
<path id="XMLID_281_" class="st5" d="M458.8,337.2c-1-1.2-2.5-1.8-3.3-1.3c-0.9,0.5-0.7,1.8,0.4,3.2c1,1.2,2.5,1.8,3.3,1.3
	C460.1,339.8,459.9,338.5,458.8,337.2z"/>
<path id="XMLID_280_" class="st5" d="M444.6,362.8c-0.7,0.5-0.9,2.4-0.4,4.3c0.9,3.3,1,3.4,2,0.4
	C447.5,364.1,446.6,361.6,444.6,362.8z"/>
<path id="XMLID_279_" class="st5" d="M438.4,401.7c0.1,1.4,0.5,0.6,0.9-1.8c0.4-2.8-0.5-5.9-2.6-8.6l-3.3-4.2v4c0,2.2,1.1,4.9,2.4,6
	C437.1,398.3,438.3,400.3,438.4,401.7z"/>
<path id="XMLID_278_" class="st5" d="M448.2,215c-0.2,0.6,6.6,8.3,15.2,17c12,12.4,15.6,15.3,16,13c0.4-2-2.9-6.5-9.6-13.3
	c-11.1-11.3-31.7-29.4-25.3-22.2C446.8,211.9,448.4,214.4,448.2,215z"/>
<path id="XMLID_277_" class="st5" d="M442.7,382c0.3-1.5-1-4.3-2.8-6.1c-3.2-3.2-3.3-3.2-3.3-0.3c0,1.7,1.3,4.4,2.8,6.1
	C442,384.5,442.2,384.5,442.7,382z"/>
<path id="XMLID_276_" class="st5" d="M466.2,247.9c-1-0.9-3.9-3.4-6.4-5.6s-3.9-2.9-3.1-1.6s1.4,2.8,1.5,3.3
	c0,0.5,6.5,7.8,14.3,16.3c7.9,8.5,14.5,15.2,14.8,14.9c0.3-0.3-0.3-2.8-1.3-5.6C484.4,265.4,477.7,258,466.2,247.9z"/>
<path id="XMLID_275_" class="st5" d="M484.5,217.8c0-0.3-1.3-1.6-2.8-2.8c-2.5-2-2.6-1.9-0.6,0.6
	C483.2,218.3,484.5,219.1,484.5,217.8z"/>
<path id="XMLID_274_" class="st5" d="M489.3,331.6c0,3.9,0.9,4.2,2.2,0.9c0.5-1.3,0.2-2.8-0.6-3.3
	C489.9,328.8,489.3,329.8,489.3,331.6z"/>
<path id="XMLID_273_" class="st5" d="M485.2,289.4c0.6,2.6,3,6.8,5.3,9.2l0,0c2.3,2.4,4.4,4.1,4.8,3.8c1.6-1.6-2-9.1-6.3-13.2
	l-4.9-4.6L485.2,289.4z"/>
<path id="XMLID_272_" class="st5" d="M494.6,313.6l-5.3-4.5v3.9c0,2.1,1.4,5.2,3.1,6.7c2.5,2.3,2.8,3.5,1.5,6.2
	c-1.6,3.4-1.6,3.4,1,0.2C500.2,319.6,500.2,318.3,494.6,313.6z"/>
<path id="XMLID_271_" class="st5" d="M477.1,280.9c1-1.5,0-3.5-3.2-6.3c-2.5-2.2-6.1-5.5-8-7.2c-6.1-5.4-3.5,1,3.5,8.7
	C474.3,281.6,476,282.6,477.1,280.9z"/>
<path id="XMLID_270_" class="st5" d="M473.3,294.5c0-1.2-2.1-3.6-4.6-5.5c-5.3-3.9-6-1.1-1,4.3l0,0
	C471,297.1,473.3,297.6,473.3,294.5z"/>
<path id="XMLID_269_" class="st5" d="M467,306.6c-5.7-4.5-5.7-0.9-0.1,5.2c4.5,4.8,4.8,4.9,4.7,1.2
	C471.6,311.4,469.5,308.6,467,306.6z"/>
<path id="XMLID_268_" class="st5" d="M471,336.6c3.1,3.1,4,5.4,3.6,9.3l-0.5,5.2l-7.2-6.7v4c0,2.2,2,6.1,4.4,8.7s4.6,4.8,4.8,4.9
	c0.2,0.1,0.4-5.9,0.4-13.4V335l-7.5-7.1C455.9,315.5,457.7,323.3,471,336.6z"/>
<path id="XMLID_267_" class="st5" d="M465.6,365.7c-0.3,1.7,1.3,5,3.6,7.4c4,4.2,4.1,4.4,1.2,7c-2.7,2.5-3.2,2.5-5.1,0.2
	c-2.4-2.8-3.6-1.6-5.3,5.6l0,0c-0.5,2.2-0.6,3.1-0.1,2s1.6-2,2.5-2s1.1,0.9,0.4,2c-0.6,1.1,2.6-1.6,7.1-5.9l8.2-7.9l-6-5.8
	C466.8,363.3,466,363,465.6,365.7z"/>
<path id="XMLID_266_" class="st5" d="M487.5,223.6c2.1,2.4,4.1,4.4,4.4,4.4c1.3,0,0.2-1.3-3.9-4.9l-4.4-3.9L487.5,223.6z"/>
<path id="XMLID_265_" class="st5" d="M494,193.9c0-0.3-1.6-1.9-3.6-3.6l-3.6-3l3,3.6C492.8,194.3,494,195.2,494,193.9z"/>
<path id="XMLID_264_" class="st5" d="M437.2,421.4L437.2,421.4c-0.8,1.2,7.2,0.1,8.8-1.3c0.9-0.8-3.5-4.7-6.8-6
	c-1.7-0.6-2.6-1.6-2.1-2.1s-1-2.6-3.4-4.6c-3.3-2.8-4.6-3.2-5.5-1.6c-0.7,1.3,0.9,4.4,4.3,8.1C435.6,417.3,437.7,420.6,437.2,421.4z
	"/>
<path id="XMLID_263_" class="st5" d="M117.4,292.6c0.9-0.5,2.1,0.2,2.7,1.8c0.9,2.4,1.2,2.3,2.4-0.9c1-2.7,0.6-4.2-1.5-5.7
	s-3.1-1.6-4-0.2C115.3,290.3,115.6,293.8,117.4,292.6z"/>
<path id="XMLID_262_" class="st5" d="M143.2,220.9L143.2,220.9c6.4,6,11.8,10,12.1,8.9c0.4-1.1-4.1-7.2-9.8-13.6
	c-5.8-6.4-10.3-12-10.1-12.3s-0.5,0.4-1.6,1.7c-1.1,1.3-2,2.8-2,3.4C131.8,209.6,136.9,214.9,143.2,220.9z"/>
<path id="XMLID_261_" class="st5" d="M169.4,170.1c19.8,18.2,21.7,13.7,2.2-5.1c-4.5-4.4-8.8-9.4-9.5-11.1c-1.1-3-1.3-2.9-3.3,0.8
	C156.9,158.3,157.4,159,169.4,170.1z"/>
<path id="XMLID_260_" class="st5" d="M150.9,244.8c1.6-1-21.5-27.9-23.9-27.9c-0.6,0-2.5,1.6-4.1,3.5c-1.7,1.9-2.1,2.9-0.9,2.2
	c1.4-0.8,6.2,2.8,14.7,11C143.5,240.3,150,245.3,150.9,244.8z"/>
<path id="XMLID_259_" class="st5" d="M127.1,279.1c0.5-1.4-0.2-4-1.6-5.9c-2.4-3.3-2.6-3.3-3.9-0.6c-1,2-0.5,3.8,1.6,5.9
	C125.8,281.2,126.3,281.2,127.1,279.1z"/>
<path id="XMLID_258_" class="st5" d="M168.2,204.1c0.6-1.9-2.2-5.4-16.4-20.4c-7.5-7.9-7.8-8.5-5.2-11.1s3.2-2.3,11.9,6
	c15.6,15,18,16.7,18,13.9c0-1.4-5.1-8-11.3-14.6c-7.4-7.9-10.9-12.8-10-14.1c0.7-1.1-3.2,1.9-8.7,6.7c-5.5,4.8-9.9,9-9.9,9.4
	s0.5,0.3,1-0.3c0.6-0.6,7.5,5.1,15.5,12.6C161.1,199.8,167.9,205.1,168.2,204.1z"/>
<path id="XMLID_257_" class="st5" d="M141.2,188.6c-0.1-1.6-0.9-0.4-1.8,2.7c-1.6,5.5-1.5,5.7,10,16.4c6.4,5.9,11.8,10.8,12,10.8
	c2.2,0-2.1-6.6-10.2-15.7C145.8,196.6,141.3,190.2,141.2,188.6z"/>
<path id="XMLID_256_" class="st5" d="M155.3,344.7c0.2-0.6-4.1-6-9.5-12.1l-9.9-11l-1.4,5.2c-0.7,2.9-1,5.6-0.5,6.1s0.9-0.5,0.9-2.2
	c0-2.8,0.3-2.7,3.2,0.7c1.7,2.1,3.1,3,3.1,2c0-3.6,2.9-1.6,7.3,5c2.5,3.7,5.9,8.4,7.7,10.4c1.7,2,3.5,3.6,3.9,3.6s-0.6-1.5-2.3-3.4
	C156.3,347.3,155.1,345.3,155.3,344.7z"/>
<path id="XMLID_255_" class="st5" d="M177.3,399.7c0.4-0.5,0.2-0.6-0.4-0.2c-0.6,0.4-2.7-0.8-4.8-2.7l-3.7-3.5v3.6
	c0,2.1,3.4,7.1,8.2,12.2l0,0c4.5,4.8,8.4,8.7,8.7,8.7c1,0-1.6-5.6-5.2-11.4C178.3,403.3,176.9,400.3,177.3,399.7z"/>
<path id="XMLID_254_" class="st5" d="M169.1,381.4c5.5,4.5,5-0.7-0.6-6.3l-4.9-4.9l1.1,4.2C165.3,376.8,167.3,379.9,169.1,381.4
	L169.1,381.4z"/>
<path id="XMLID_237_" class="st5" d="M31.2,154.6c0.9,25,2.4,68.8,3.4,97.4c1,28.8,1.5,83.1,1,122.1c-0.8,74.4,0.1,95,5.2,113.8
	c12.4,45.7,36.3,60.7,138.8,87.1c50.1,12.9,68,19.8,92.3,35.7c7.3,4.8,17.4,12.5,22.3,17.2l0,0c5,4.7,9.3,8.6,9.5,8.6
	s5.9-4.6,12.6-10.3c30.7-26.2,48.1-34,117.8-52.6c70.5-18.8,92.5-27.7,110.2-44.2c8.2-7.6,11.8-12.6,16.6-22.7
	c11.7-24.7,11.9-27.8,12.2-136.6c0.2-96.1,1.1-138,4-201.9c1.9-42.5,6.3-161.7,6.3-172.8V-13h-26.7c-89.4,0-177.1-16.2-235.1-43.4
	l-16.9-7.9l-14.2,6.7C229.7-29.1,143.3-13,51.6-13H24.9v7.7c0,4.2,1.1,31.7,2.4,61C28.5,85.1,30.3,129.6,31.2,154.6z M235.7,479.3
	l-7-6.7l4.5-1.1c3.8-0.9,5.4-0.3,9.9,4.2c5.1,5.1,5.2,5.5,2.5,7.8S242.1,485.5,235.7,479.3z M280.2,494.4c-0.4-0.1-2.7-0.7-5.1-1.4
	s-4.6-1-4.9-0.7c-0.4,0.4-1.9-0.7-3.3-2.3c-2.5-2.7-2.5-3.2-0.2-5.1c2.2-1.8,3.4-1.3,8.4,3.8l0,0
	C278.3,491.9,280.6,494.5,280.2,494.4z M477.1,118.3c1.8-1.8,10.2,8.5,14.6,18.1c6.1,13,8.2,26.7,7.4,48.1l0,0
	c-0.2,6.4-1,8.7-3.4,10c-2.6,1.4-3.8,0.7-7.6-3.7c-2.5-2.9-8.5-7.9-13.3-11.1s-11.2-8.1-14.2-11c-10.2-9.9-18-25.2-12.8-25.2
	c0.9,0,7.2,3.8,14,8.4c6.8,4.6,13.4,8.4,14.7,8.5c1.3,0,2.2,0.8,2.1,1.8c-0.2,0.9,1.4,3.4,3.6,5.4l3.9,3.7l-0.1-7.9
	c0-4.3-1.2-10.7-2.6-14.2C479.7,139.4,475.6,119.8,477.1,118.3z M446,110.8c16.1,8.8,23.8,17.7,30.6,35.9c1.7,4.4,2.5,8,1.7,8
	c-0.7,0-3.7-1.8-6.6-3.9c-2.9-2.2-6-3.5-6.7-3.1c-0.8,0.5-1.2,0.3-1-0.5c0.2-0.7-4.1-5.8-9.6-11.2s-9.5-9-8.9-8s-0.4,0.5-2.4-1.1
	c-3.9-3.4-4.8-5.7-1.1-2.5c3.1,2.6,3,1.9-0.8-5.6c-1.8-3.4-3.2-7.6-3.2-9.2C438.2,106.8,438.9,106.9,446,110.8z M404.3,104.6
	c2.8,1.6,5.2,3.8,5.2,4.8c0,1.1,1,1.6,2.2,1.1s2.7-0.1,3.3,0.9c0.6,1,1.6,1.4,2.3,1c0.7-0.4,7.8,5.9,15.8,13.9
	c12.7,12.8,14.3,15,12.5,17.4s-4.5,0.2-24.3-19.7C408.5,111.2,401.3,102.9,404.3,104.6z M347.7,83.8c5.8,0.9,7.3,2.2,81.1,75.5
	c39.3,39,46.8,45.8,43.6,39.6c-2.1-4.1-3.9-8.8-3.9-10.4c0-2-0.4-2.3-1.3-0.9c-0.9,1.3-15.6-12.5-45.9-43.1
	c-24.5-24.8-47.1-47.9-50.2-51.3c-5.1-5.6-5.2-5.9-1.2-3.4c2.4,1.5,4.4,2.2,4.4,1.6c0-0.7,1.6,0.1,3.5,1.8c2.2,2,3,2.2,2.2,0.6
	c-1.4-2.6,25.1,23.2,64.8,63c14,14,25.4,26.1,25.3,26.9s2.8,2.8,6.4,4.6c8.2,4,19.4,15.3,23.3,23.5c1.7,3.4,3.5,5.9,4.1,5.6
	c0.6-0.4,0.7,1,0.2,2.9s-0.3,3.1,0.3,2.5c0.7-0.6,1.3-15.1,1.4-32.2c0.2-37.1,1.6-40.8,8.8-24.8c10.9,24.2,10.9,50.2,0.2,74.6
	c-2.6,5.8-2.8,7.6-1.1,9.7c1.8,2.3,1.7,2.3-0.8,0.4c-1.8-1.4-2.8-1.6-2.8-0.4c0,3.8-2.8,1.5-5.6-4.6c-1.6-3.5-4-7.3-5.3-8.4
	c-1.8-1.4-1.6-0.7,0.5,2.8c3,5-145.4-142.2-152.8-151.6l-4.2-5.3L347.7,83.8z M170.7,108.1c0.4,0.7-1.4,5.9-4.2,11.5
	c-2.7,5.6-4.8,11-4.6,11.8c0.2,0.9-0.1,1.1-0.7,0.5c-0.6-0.6-7.3,4.3-14.8,10.8c-7.6,6.5-14.6,11.9-15.7,11.9
	c-3.8,0,5.4-19.8,13.8-29.7C151.3,117,169.1,105.5,170.7,108.1z M104.8,211.1c0.1-1.9,0.5-2.2,1-1s0.4,2.5-0.1,3.1
	C105.1,213.7,104.7,212.8,104.8,211.1z M72.9,218.4c0.8,0,2.5,2.7,3.9,5.9c1.4,3.2,4.1,8.1,6.1,10.8c6.9,9.3,11.9,19.3,15.5,31.1
	c2.8,9.2,3.9,11.2,4.8,8.8c1.8-4.5,1.8-10.1,0-7.4c-1,1.6-1.8,0.8-3.1-3c-1-2.8-1.4-5.8-0.9-6.6c1.3-2,5.4,1.6,5.6,4.8
	c0.1,1.4,1.2,0.2,2.5-2.8c2.2-5,2.1-5.5-0.9-7.7c-2.7-1.9-2.9-2.8-1.3-5.3c1.4-2.3,2.4-2.6,4-1.3c1.2,1,1.7,2.9,1.3,4.3
	c-0.5,1.4,0.4,0.8,1.9-1.2c1.5-2.1,5.6-7,9.2-11.1c3.5-4,5.5-6.8,4.5-6.2c-1.1,0.6-3.2-0.6-5-2.9c-3.2-4.1-4-3.8-7.5,2.2
	c-0.8,1.4-0.7,1.9,0.3,1.2c0.9-0.6,2.8,0.3,4.2,1.9c2.4,2.7,2.4,3.1-0.4,5.6c-2.6,2.4-3.2,2.4-4.9,0.3c-1.1-1.3-1.5-3.3-0.9-4.4
	c2-4-4.3,4.4-8,10.7l-3.7,6.4l-5.6-12c-7.9-16.9-10.4-35.9-6.9-53.5c1.4-7,4.3-16.9,6.6-21.9c4-9,7.3-11.9,7.4-6.4
	c0,1.5,0.7,9.6,1.5,18c0.9,9.6,0.9,20.3,0,29c-2,17.6-0.6,22.2,3.5,11.8c1.6-4.1,2.5-8.2,2-9s-0.3-1.3,0.6-1.1
	c0.8,0.2,4.4-2.8,8-6.9c3.6-4,9.7-9,13.6-11.1l7.1-3.8l-3.9-2c-3.4-1.8-4.6-1.6-9,1.5c-10.3,7.1-10.8,7.8-8.7,10.6
	c1.7,2.2,1.6,2.3-0.6,0.6c-1.4-1.1-3-1.6-3.5-1c-2,2-3.1-11.4-2.3-27c1-18.5,4.3-29.1,13.3-42.2c11.3-16.4,12.8-8.7,3.6,18.5
	c-2.5,7.5-4.6,16.4-4.6,19.7v6.1l10-8.1c5.5-4.5,13-9.9,16.8-12.1c3.7-2.2,6.4-4.6,6-5.3s0.3-2.2,1.6-3.2c1.4-1.2,2.4-1.3,2.4-0.3
	c0,0.9-0.9,2-2,2.5s0.1,0.4,2.6-0.1c4.2-0.9,4.5-0.7,3.5,2.9c-0.7,2.5-0.6,3.1,0.4,1.7c1.2-1.7,1.9-1.6,3.5,0.4
	c5.7,6.8,27,24.7,27.9,23.3c0.5-0.9-6.6-9.6-16-19.3c-15.7-16.4-16.7-17.9-14-19.9c2.6-1.9,3.7-1.4,10.1,4.7
	c19.6,18.8,26.5,24.8,28.3,24.8c1.1,0,2-0.4,2-0.9s-7.3-8.5-16.2-17.8c-13.6-14.2-15.8-17.1-13.5-18.3c1.5-0.8,2.2-2.3,1.6-3.4
	c-0.6-1,3.2,2.1,8.3,7c5.2,4.9,13.3,12.6,18.2,17.1c7.8,7.3,12.8,10.2,12.8,7.3c0-0.5-7.2-8.5-16.1-17.8
	c-14.5-15.2-15.8-17.1-13.6-19.3c2.7-2.7,0.7-4.3,25.4,19c11.9,11.2,14.8,13.4,16,11.5c0.4-0.7-6.7-9.1-15.8-18.8
	c-13.6-14.4-16.1-17.9-14.2-19.3c1.3-1,1.8-2.4,1.2-3.2c-2.1-2.6,9.5,7.8,23.2,20.9c14.5,13.8,17.3,15.9,18.5,13.9
	c0.4-0.7-4.3-6.6-10.6-13.2c-17.8-18.7-24.5-26-22.3-24.8c1.1,0.6,2,0.5,2-0.3c0-4.4,7.3,0.6,24.2,16.7
	c10.4,9.9,19.3,18.1,19.8,18.1c0.4,0,0.8-0.9,0.8-2c0-1.8-6-8.5-26.7-30.2c-6.9-7.2-7-7.5-3.8-9.2c3-1.6,5.2,0,21.4,15.7
	c9.9,9.6,20.2,18.3,22.8,19.3c4.6,1.7,4.6,1.7-1.7-5.1c-3.5-3.8-6.7-7.2-7.2-7.7c-0.4-0.5-6.5-7-13.6-14.4c-7-7.4-12.1-13-11.4-12.4
	c0.8,0.6,2.7,0.4,4.3-0.5c2.5-1.3,6.3,1.6,23.9,18.4c11.5,11,21.7,19.5,22.5,19c1.7-1.1-1.7-5-23.1-27.1L248,86.4l5.5,0.2
	c4.8,0.1,8.2,2.8,26.3,20.2c11.5,11,21.9,20.1,23.3,20.1c3.1,0-5.2-10-23.6-28.2c-7.5-7.4-13.7-14-13.7-14.7c0-0.6,1.6-1.4,3.6-1.7
	c2.8-0.4,9,4.7,27.9,22.8c13.4,12.8,25.4,23.3,26.8,23.3c3,0,0.5-2.8-25.2-29.1c-18.7-19.1-18.8-19.2-13.5-19.2
	c4.7,0.1,8.6,3.2,31.9,25.6c14.6,14,26.9,25.2,27.3,24.7c0.4-0.4,2.3,0.6,4.4,2.4c7.6,6.5-7.5-10.2-28.6-31.5
	c-11.9-12.1-20.6-22-19.4-22.1s3.7,0,5.4,0.2c1.7,0.2,18.1,14.8,36.4,32.5s34.2,32.4,35.2,32.8c1,0.3,3.3,1.8,5.1,3.2
	c5.8,4.6-7.6-9.8-35-37.7c-14.9-15.1-26.5-28-25.9-28.6c4.4-4.4,9.6,0.2,92.4,82.6c57.2,56.9,84.2,84.8,83.4,86.2
	c-0.8,1.2-0.6,1.6,0.4,1c0.9-0.6,4.2,1.8,7.3,5.2l5.6,6.2l3.5-8.2c1.9-4.5,6.6-12.9,10.3-18.6s7.3-12,7.9-14
	c3.5-11.3,5.2,6.6,2.6,27.2c-1.8,13.6-5.7,24.1-12.5,32.9c-2.4,3.1-4.4,6.4-4.4,7.3s-0.9,1.4-1.8,1.3c-2-0.4-16.5,14.5-16.5,16.9
	c0,0.9,0.8,2,1.7,2.6c1.1,0.7,1,1.9-0.4,3.7c-1.1,1.5,5.3-4.7,14.3-13.6c9.8-9.7,16.3-15.2,16.3-13.6c0,7.2-5.5,27.4-9.1,33.8
	c-2.3,3.9-9.2,12.3-15.5,18.5c-6.2,6.2-10.6,10.7-9.8,10c2.6-2.4,4.1-1.5,4.1,2.3c0,5.5-1.7,6.3-5.7,2.6l-3.5-3.3l-4.6,4.3
	c-2.5,2.4-3.3,3.4-1.7,2.2c2.4-1.7,3.3-1.6,5.5,0.6c2.5,2.5,2.5,2.8,0,5.3s-2.9,2.5-5.7,0c-1.6-1.5-3.8-2.7-4.8-2.7
	c-2.3,0-2.5,4.2-0.2,5.7c0.9,0.6,1.3,2.1,0.8,3.3c-1.2,3.2,16.2-8.1,23.8-15.5c3.5-3.4,6.9-6.2,7.6-6.2c2.2,0-0.9,15.3-4.6,22.6
	c-2,4.1-7.3,11.7-11.6,16.9c-6.2,7.4-10.6,10.8-20.8,15.9c-9.3,4.7-12.2,6.8-10.3,7.5c4.5,1.7-0.1,4.7-5.2,3.4
	c-3.5-0.9-4-1.4-2.1-2.7c2.7-1.9-7-0.2-12.1,2.1c-3,1.3-2.9,1.4,0.3,0.8c1.9-0.4,4.4,0.4,5.5,1.7c2.8,3.3,12.6,1.5,23.5-4.4
	c4.8-2.6,8.9-4.5,9.1-4.3s0,2.5-0.5,5.1c-1.2,6.1-13.1,17.9-24.3,24.2c-13.3,7.4-21.7,9.1-39.8,8.3l-15.9-0.8l3.5,4.4
	c4.3,5.4,13.9,7.9,30.7,7.9c6.5,0,11.9,0.6,11.9,1.4c0,2.2-20.6,11.1-31.9,13.7c-5.7,1.3-13.8,2.4-18.1,2.5c-4.2,0-9,0.7-10.7,1.6
	c-2,1.1-3.3,1.1-4,0c-0.5-0.9,0-1.6,1.1-1.7c1.8-0.1-12.2-4.4-14.9-4.6c-0.6,0,1.2,2.2,3.9,4.9c4.5,4.5,4.7,5.2,2.3,6.9
	c-1.5,1.1-2.2,2.6-1.6,3.4c0.6,0.8-3.7-3.2-9.5-8.8c-5.9-5.6-10.2-11-9.7-11.8c0.5-0.9,0.2-1.1-0.7-0.5c-0.9,0.6-1.9,0.5-2.2-0.2
	c-0.6-1.3-11.8-6.8-13.9-6.8c-0.7,0,4.7,6,12,13.3s13.3,14.4,13.3,15.9c0,1.7-2.2,0.4-6.8-4.2c-4.7-4.7-5.2-5-1.8-1.1
	c4.9,5.6,8,11.4,5.8,10.9c-0.6-0.1-3.1,0.7-5.6,1.9c-4.3,2.1-4.7,1.9-14.4-7.3c-6.9-6.6-7.7-7.2-2.8-1.9c3.9,4.2,6.5,7.6,5.8,7.6
	c-1.7,0-23.4-20.4-22.9-21.5c0.5-1-9.4-7.6-15.5-10.2c-4.2-1.8-3.6-0.8,4.2,7.2c11.9,12.3,23.6,25.1,23.2,25.5
	c-0.2,0.1-1.8,0.5-3.6,0.8c-2.4,0.4-7.9-3.7-19.7-14.6c-9-8.3-17-15.2-17.8-15.2c-3.4,0-0.7,4,11.4,17.2c12.5,13.5,12.7,14,8.2,14
	c-3.6,0-7.6-2.8-17.9-12.5l-13-12.5l-4.2,3.9c-2.3,2.2-3.1,3.2-1.7,2.2c2-1.4,4.4,0.2,12.7,8.6l10.2,10.3h-5c-2.8,0-6-0.9-7.1-2.1
	c-1.2-1.1-5.2-4.8-9-8.2L272,478l-8.3,8.2l0,0c-4.6,4.5-9.2,8.2-10.2,8.2c-2,0-8.4-6.2-8.4-8.2c0-0.7,2.1-2.7,4.7-4.5l4.7-3.4
	l-12.8-11.6l-7.5,2.7c-4.1,1.5-9.1,2.7-11.1,2.7c-3.4,0-3.3,0.3,1.6,4.8l5.2,4.8l-7.2-3.8c-4.9-2.6-11-4.1-19.2-4.7
	c-6.6-0.5-16.3-2.3-21.6-4c-9.9-3.2-22.5-9.2-23.8-11.3c-0.4-0.7,6.6-1.6,15.6-2s18.1-1.6,20.3-2.6l4-1.8l-4.2,0.8
	c-2.9,0.6-5.1-0.2-7-2.4c-2.8-3.1-2.7-3.2,2.8-3.2c3.1,0,6.5,1.1,7.6,2.4c2.2,2.6,8,3.3,8,0.9c0-0.8-0.8-2-1.8-2.6
	c-1.2-0.7-1.2-1.4-0.2-2.1c0.9-0.5-7.8-1-19.4-1h-21l-11.7-6.4c-6.4-3.5-14.1-8.5-17-11.2c-7.8-7.1-13.5-19.9-8.8-19.9
	c0.9,0,1.6,0.6,1.6,1.4c0,1.8,19.7,9.7,24.2,9.7c3.4,0,3.4-0.1,0.4-3.3c-3-3.3-3-3.3,1.7-2.2c7.5,1.8,11.5,3.5,12.7,5.4
	c0.6,0.9,0.1,1.7-1,1.8c-2.3,0.1,6.5,3.5,13.5,5.3c4.3,1.1,4.3,0.9-1.6-4.3c-4.7-4.2-9.6-6.4-22-9.7c-8.8-2.4-17.5-4.4-19.4-4.6
	s-3.2-0.6-2.9-0.9s-3.5-3.3-8.6-6.5c-8.9-5.7-18.4-16.7-24.7-28.5c-2.9-5.4-5.7-22.6-3.7-22.6c0.6,0,4.4,3.2,8.6,7.1
	s12,10,17.5,13.5l9.9,6.4l-12.7-12.3c-7-6.8-12.7-13.3-12.7-14.5c0-1.9,0.5-1.8,2.8,0.2c3.6,3.1,6.8,4.9,6.8,3.9
	c0-1.4-13.9-10.4-15-9.7c-0.6,0.4-0.7,0.3-0.3-0.3s-2.8-5.4-7.2-10.8c-8.7-10.7-13.4-21.5-15.7-35.7c-0.8-5-1.3-9.4-1.1-9.6
	c1.4-1.5,29.2,28.2,35.5,38l7.8,12v-17.1c0-9.4-0.5-16.4-1-15.5c-0.7,1.2-1.4,1.2-2.1-0.1c-0.6-1-1.8-1.8-2.6-1.8
	c-2.4,0-1.7,5.8,0.9,8c1.3,1.1,2.4,4.5,2.4,7.8v5.8l-10-10.4c-5.5-5.7-10-11.7-10-13.4c0-2.3,1.8-1,7.1,4.8c3.9,4.3,5.6,5.7,3.8,3
	c-1.8-2.6-8.1-9.8-13.9-15.9c-11.4-11.8-16.7-20.8-19.9-33.6C72,248,70.8,218.4,72.9,218.4z M123.6,188.2c3.7-2,4.9-2.1,4.9-0.5
	c0,2.1-6.2,5.2-7.2,3.6C120.9,190.5,121.9,189.1,123.6,188.2z M509.9,303.9c-2.2,2.6-4.1,3-5.4,0.9c-0.5-0.8,0.5-2.6,2.1-4.1
	C510.2,297.5,513,300.2,509.9,303.9z M430.2,452.5c0,3.4-5.9,2.4-10.7-1.9l-4.5-3.9l5.7-0.1C426.5,446.6,430.2,448.9,430.2,452.5z
	 M174.2,446.6c0.9,0,3.4,1.8,5.4,4s3.1,3.9,2.3,3.9C179.8,454.4,172.2,446.6,174.2,446.6z M138.6,409.8c2.4,2.1,4.3,4.1,4.3,4.4
	c0,1.6-3.5-1.2-6.3-5.1C134.9,406.8,135.4,407,138.6,409.8z"/>
<path id="XMLID_236_" class="st5" d="M148.1,390.6c-2.5-2-2.6-1.9-0.6,0.6c2.1,2.7,3.4,3.5,3.4,2.2
	C150.9,393,149.7,391.8,148.1,390.6z"/>
<path id="XMLID_235_" class="st5" d="M149.3,320c0-1.2-2.8-5.3-6.3-9.2c-5-5.5-6.3-6.3-6.4-3.9c0,1.7,2.6,5.8,5.8,9.2
	C149.1,322.9,149.3,323,149.3,320z"/>
<path id="XMLID_234_" class="st5" d="M329.5,458.2c1.2,1.5,2.5,2.8,2.8,2.8c1.3,0,0.5-1.3-2.2-3.4
	C327.5,455.6,327.5,455.7,329.5,458.2z"/>
<path id="XMLID_233_" class="st5" d="M289.8,441.6c2.2,0,3.1-0.4,2-0.8c-1.1-0.4-2.9-0.4-4,0C286.7,441.2,287.6,441.6,289.8,441.6z"
	/>
<path id="XMLID_232_" class="st5" d="M137.3,361.5c-5.4-4.5-5.5-4.5-5.5-1c0,2,3,6.9,6.8,11c3.7,4.1,7,7.3,7.3,7.1
	c0.3-0.2-0.3-3.1-1.3-6.5C143.5,368.6,140.5,364.2,137.3,361.5z"/>
<path id="XMLID_231_" class="st5" d="M266.7,456.8c-2.3,0.9-2.3,1.3,0.3,4.1l0,0c3.3,3.6,4.6,4,6.1,1.6
	C274.6,459.9,269.7,455.6,266.7,456.8z"/>
<path id="XMLID_230_" class="st5" d="M362.9,439.2c5.9,1.6,7.2,0.9,3.4-1.7c-2.2-1.5-4.8-2.9-5.8-3
	C357.6,434,359.9,438.4,362.9,439.2z"/>
<path id="XMLID_229_" class="st5" d="M400.3,417.2c1.7-3,0.7-4.9-1.8-3.4c-0.9,0.6-1.2,2.1-0.7,3.5
	C398.7,419.6,398.9,419.6,400.3,417.2z"/>
<path id="XMLID_228_" class="st5" d="M393.1,428.8c1.5-1.2,1.1-2.3-1.6-4.5c-4.7-3.8-6.7-2.3-3.2,2.4
	C390.3,429.3,391.7,429.9,393.1,428.8z"/>
<path id="XMLID_227_" class="st5" d="M390,446.2c8.2,3.7,7.4,1.9-3.7-8.2c-6.1-5.6-11.7-9.8-12.4-9.4
	C372.1,429.7,385,443.9,390,446.2z"/>
<path id="XMLID_226_" class="st5" d="M283.4,456.2c0.8,0,1.9-0.7,2.4-1.6c0.5-0.9-0.5-1.6-2.4-1.6s-2.9,0.7-2.4,1.6
	S282.6,456.2,283.4,456.2z"/>
<path id="XMLID_225_" class="st5" d="M267.4,438.4c2.2,0,3.1-0.4,2-0.8c-1.1-0.4-2.9-0.4-4,0C264.3,438,265.2,438.4,267.4,438.4z"/>
<path id="XMLID_224_" class="st5" d="M129.8,239.3c-0.7-0.1-1.2,1.4-1.1,3.4c0.1,2.3,3.3,6.3,9.1,11.3c5,4.2,9.3,6.9,9.6,5.9
	C148,258.2,132.2,239.7,129.8,239.3z"/>
<path id="XMLID_223_" class="st5" d="M421.6,418.8c-0.6,1.5-0.2,3.7,0.8,4.9l0,0c2,2.4,7.8,3,7.8,0.9c0-0.7-1.7-2.9-3.8-4.9
	C423,416.5,422.5,416.4,421.6,418.8z"/>
<path id="XMLID_222_" class="st5" d="M141.1,350.8c0.5-3.3-5.1-11.1-8-11.1c-2.8,0-1.1,5.6,3.1,10
	C140.4,354.2,140.6,354.2,141.1,350.8z"/>
<path id="XMLID_221_" class="st5" d="M126.8,255.9c-1.4,4.5-0.9,5.4,8.4,14.4c12.7,12.4,14.9,8.9,2.3-3.8c-4.9-5-9-10.5-9.1-12.2
	C128.3,252.1,127.8,252.7,126.8,255.9z"/>
<path id="XMLID_220_" class="st5" d="M145.7,297.5c1-1-4.7-8.7-9.8-13.5l-4.1-3.8l1.5,5.2c0.8,2.9,1.7,5.4,2,5.5
	c0.2,0.2,2.5,1.9,5.1,3.8C142.9,296.7,145.3,297.9,145.7,297.5z"/>
<path id="XMLID_219_" class="st5" d="M248.7,438.7c2.9,0,2.8-0.4-1.1-3.4c-4.6-3.6-7.4-3-4.2,0.9
	C244.6,437.6,246.9,438.7,248.7,438.7z"/>
<path id="XMLID_218_" class="st5" d="M261,471.2c2.1-1.9,1.8-2.7-1.7-6.2c-2.6-2.6-5-3.7-6.7-3c-2.4,0.9-2.2,1.7,1.7,6.2
	C258,472.6,259,473,261,471.2z"/>
<path id="XMLID_217_" class="st5" d="M119.4,353.9c-2.5-2-2.6-1.9-0.6,0.6c2.1,2.7,3.4,3.5,3.4,2.2
	C122.2,356.3,120.9,355.1,119.4,353.9z"/>
<path id="XMLID_216_" class="st5" d="M210.6,444c1.5,0.6,2.3,1.8,1.8,2.7c-1.3,2,2.4,2.1,5.6,0c4-2.5-1.5-6.9-6.4-5.1
	C208.4,442.7,208.2,443,210.6,444z"/>
<path id="XMLID_215_" class="st5" d="M232.6,441.8c4.2,0,3.4-1-11.3-14.2c-15-13.5-16-10.1-1.4,4.6
	C225.2,437.5,230.9,441.8,232.6,441.8z"/>
<path id="XMLID_214_" class="st6" d="M473.3,334.1c-1,0.6-0.9,2.1,0.4,4.1c1.1,1.7,2.2,2.4,2.5,1.5C477.1,337,475.1,333,473.3,334.1
	z"/>
<path id="XMLID_213_" class="st6" d="M472.4,239.2c-0.7,0,0.4,1.8,2.5,4c4.5,4.8,4.8,4.8,4.8,1.1c0-1.6-2.3-4.6-5.2-6.7
	c-2.9-2.2-4.2-2.6-3-1.1C472.7,237.9,473.1,239.2,472.4,239.2z"/>
<path id="XMLID_212_" class="st6" d="M497.5,321.6c0.6-0.9-0.8-3.9-3.2-6.6c-5.4-6.2-6.9-2.7-1.6,3.7
	C494.9,321.4,496.9,322.6,497.5,321.6z"/>
<path id="XMLID_211_" class="st6" d="M261.7,470.8c1.3-2-6.8-10.1-8.8-8.9c-1.1,0.7-0.1,2.8,2.7,5.7
	C260.6,472.7,260.5,472.7,261.7,470.8z"/>
<path id="XMLID_210_" class="st6" d="M500.6,358c-0.8,0.5-2.8-0.8-4.4-2.8c-1.6-2.1-3.8-3.4-4.9-3.1c-1.4,0.5-0.9,2,1.6,5.1
	c2.8,3.4,4.3,4.1,6.4,3c1.5-0.8,2.8-1.8,2.8-2.3C502,357.4,501.4,357.5,500.6,358z"/>
<path id="XMLID_209_" class="st6" d="M480.7,361.5c-0.6,0.6,0.1,2.4,1.6,4c2.8,3.1,5.3,3.8,5.3,1.6
	C487.7,364.9,481.9,360.3,480.7,361.5z"/>
<path id="XMLID_208_" class="st6" d="M487,274.3c0.2,0-0.4-2-1.3-4.4s-3.9-6.2-6.6-8.3c-2.7-2.2-4-2.7-2.8-1.2s1.6,2.8,0.9,2.8
	s1.1,2.5,4.1,5.6C484.3,271.8,486.8,274.3,487,274.3z"/>
<path id="XMLID_207_" class="st6" d="M484.5,287.8c0,1.2,2.3,5,5.2,8.6l0,0c6.1,7.6,6.6,7.9,5.4,2.8
	C493.9,294.7,484.5,284.6,484.5,287.8z"/>
<path id="XMLID_206_" class="st6" d="M460.5,416.6c0-2.3-3.8-5.1-7-5.1c-3,0-3,0.1-0.2,3.2C456.2,417.9,460.5,419,460.5,416.6z"/>
<path id="XMLID_205_" class="st6" d="M410.4,448.8L410.4,448.8c3.3,3.2,7.2,5.8,8.8,5.8c4,0-5.4-9.2-10.8-10.6
	C404.7,443.1,404.9,443.5,410.4,448.8z"/>
<path id="XMLID_204_" class="st6" d="M442.6,421.1c3.3,0,1.6-3.7-2.5-5.6c-1.9-0.9-3.5-2.2-3.5-3s-1.8-3.1-3.9-5.1
	c-6.7-6.2-5.6-0.5,1.2,6.8C437.4,418,441.3,421.1,442.6,421.1z"/>
<path id="XMLID_203_" class="st6" d="M429.1,424.9c1.4-1.4-5.4-7.1-7.2-6c-0.8,0.5-0.3,2.3,1.3,4
	C426.1,426.1,427.4,426.5,429.1,424.9z"/>
<path id="XMLID_202_" class="st6" d="M391,446.7c5.7,2.3,5.8,1.6,0.5-3.1c-2.9-2.6-5.8-4.3-6.5-3.8C383.3,440.8,387,445.1,391,446.7
	z"/>
<path id="XMLID_201_" class="st6" d="M428.5,445c-2.4,0-1.8,1.2,3,5.5l0,0c8.1,7.6,13.2,7.6,5.6,0C434,447.6,430.1,445,428.5,445z"
	/>
<path id="XMLID_200_" class="st6" d="M267.7,460.7c1.1,1.1,2.9,1.9,4,1.9c1.7,0,1.7-0.6,0.1-3.2c-1.1-1.8-2.9-3.2-4-3.2
	C265.3,456.2,265.3,458.2,267.7,460.7L267.7,460.7z"/>
<path id="XMLID_199_" class="st6" d="M519.6,231.9c0.7-0.4,2.1,0.4,3.2,1.7c1.1,1.3,2.1,2.2,2.2,2c0.1-0.2,1.3-1.9,2.5-3.6
	c1.3-1.8,1.6-2.6,0.9-2c-0.8,0.7-3-0.3-4.9-2.1l-3.5-3.3l-0.8,4C518.8,230.9,519,232.4,519.6,231.9z"/>
<path id="XMLID_198_" class="st6" d="M505.2,275.5c0,3.4,1.2,2.2,3-2.8c1.2-3.4,1.2-4.5,0-3.8c-0.9,0.6-2.4,0.1-3.3-1.1
	c-1.1-1.6-1.3-1.1-0.6,1.8C504.8,271.7,505.2,274.4,505.2,275.5L505.2,275.5z"/>
<path id="XMLID_197_" class="st6" d="M510.2,295.4c-1.2,1.2-0.9,2.3,1,3.8c3.2,2.4,4.6,2.7,5.8,0.9
	C518.4,297.8,512.1,293.5,510.2,295.4z"/>
<path id="XMLID_196_" class="st6" d="M467.2,348.4c-0.3,1.2,1.5,4.2,4,6.7l0,0c3.8,3.9,4.6,4.1,5,1.8
	C476.8,353.5,468,345.2,467.2,348.4z"/>
<path id="XMLID_195_" class="st6" d="M501.8,305.6c-0.9,0.5-0.7,1.8,0.4,3.2c1,1.2,2.5,1.8,3.3,1.3c0.9-0.5,0.7-1.8-0.4-3.2
	C504.1,305.6,502.6,305,501.8,305.6z"/>
<path id="XMLID_194_" class="st6" d="M524.4,286.2c-2.4-2.2-2.9-2.1-5.4,0.6c-2.6,2.9-2.6,3,0.1,2.8c1.9-0.2,2.8,0.8,2.7,2.6
	c-0.3,3.6-0.2,3.6,4.3-1.6c2.1-2.4,3.2-3.8,2.4-3.2C527.7,288.1,525.8,287.6,524.4,286.2z"/>
<path id="XMLID_193_" class="st6" d="M488.1,237.2L488.1,237.2c14.7,14.8,23.1,22.2,24.2,21.2c1-1-0.5-3.6-4.3-7.4
	c-3.2-3.2-5.4-6.6-4.8-7.5s0.2-1.1-0.7-0.6c-1,0.6-9.8-6.9-19.8-16.9c-10-9.9-20.2-19.8-22.7-22l-4.6-4l5.1,7.2
	C463.2,211.2,475.6,224.7,488.1,237.2z"/>
<path id="XMLID_192_" class="st6" d="M506.1,342.6c0.7-1.2-0.3-0.8-2.2,0.9l-3.4,3l3.5,2.9c4.4,3.6,7.1,2.3,3.5-1.7
	C506,345.9,505.4,343.8,506.1,342.6z"/>
<path id="XMLID_191_" class="st6" d="M518.5,245.7c1.1-1.1,0.9-2.4-0.5-4.1c-1.6-2-2.4-2.1-3.4-0.5c-0.7,1.1-0.5,3,0.5,4.1
	C516.3,246.6,517.4,246.7,518.5,245.7z"/>
<path id="XMLID_190_" class="st6" d="M490.3,329.7c-0.4-1.1-0.8-0.2-0.8,2s0.4,3.1,0.8,2C490.8,332.6,490.8,330.8,490.3,329.7z"/>
<path id="XMLID_189_" class="st6" d="M465.3,365.8c0,1.6,2,4.9,4.4,7.4c2.7,2.8,5,4,5.9,3.1c1-0.9-0.6-3.7-4.4-7.4
	C466.7,364.3,465.3,363.6,465.3,365.8z"/>
<path id="XMLID_188_" class="st6" d="M480.9,164.9l-5.2-4.7l4.7,5.2c2.6,2.9,4.9,5.2,5.2,5.2C486.8,170.5,485.7,169.2,480.9,164.9z"
	/>
<path id="XMLID_187_" class="st6" d="M462.5,120.9l-4.4-3.9l3.9,4.4c2.1,2.4,4.1,4.4,4.4,4.4C467.6,125.9,466.6,124.6,462.5,120.9z"
	/>
<path id="XMLID_186_" class="st6" d="M481.3,153c0.8,0,1.8,1.4,2.4,3.2c1.6,5,2.4,3.7,1.3-2c-0.6-2.9-3-7-5.3-9.2
	c-2.4-2.2-4.8-5.7-5.5-7.7c-0.6-2-1.5-3.4-1.8-3C471.3,135.3,479.7,153,481.3,153z"/>
<path id="XMLID_185_" class="st6" d="M500,180.9c-0.5-3.7-0.7-3.2-0.9,2.3c-0.2,4.7,0.7,8.1,2.6,10.2c2.5,2.8,2.8,2.8,3.3,0.4
	c0.3-1.5-0.5-3.9-1.9-5.4C501.8,186.9,500.4,183.5,500,180.9z"/>
<path id="XMLID_184_" class="st6" d="M462,381.4c-0.6,1-0.4,2.8,0.7,3.9c2.7,3,5.2-0.2,2.6-3.3C463.8,380.1,462.9,380,462,381.4z"/>
<path id="XMLID_183_" class="st6" d="M471.3,407.7c-3.6-2.3-5-0.4-2.6,3.5l0,0c1.1,1.8,3,2.8,4.2,2.4
	C475.5,412.5,474.8,409.9,471.3,407.7z"/>
<path id="XMLID_182_" class="st6" d="M454.5,114.5c-2.5-2-2.6-1.9-0.6,0.6c1.2,1.5,2.5,2.8,2.8,2.8
	C458,117.9,457.2,116.6,454.5,114.5z"/>
<path id="XMLID_181_" class="st6" d="M444.2,108.3c-3.4-1.7-3.5-1.6-0.5,0.7c3.3,2.6,4.1,3,4.1,1.7
	C447.8,110.3,446.1,109.2,444.2,108.3z"/>
<path id="XMLID_180_" class="st6" d="M98.2,253c6.1,5.7,8.9,7.5,9.3,5.9c0.7-3.1-4.2-8.5-6.8-7.5c-1.2,0.5-2.9-1.4-4.2-4.5
	c-1.2-2.9-5.6-8.4-9.7-12.1c-4.2-3.8-8-8.3-8.6-10.1c-0.6-1.8-1.4-2.8-1.9-2.4C74.7,223.9,89.6,244.8,98.2,253z"/>
<path id="XMLID_178_" class="st6" d="M140.1,175.9c-0.9,0.6,2.4,4.9,7.4,9.7c11.7,11.3,14.5,9.6,3-1.9
	C145.6,178.9,141,175.4,140.1,175.9z"/>
<path id="XMLID_177_" class="st6" d="M100.5,268.3c-0.5,0.5-0.3,2.9,0.4,5.4c0.9,3.4,1.4,3.8,1.8,1.7
	C103.4,272.1,101.8,267,100.5,268.3z"/>
<path id="XMLID_176_" class="st6" d="M105.8,183.3c2.6,2.5,2.8,2.5,3.3-0.5c0.3-1.7-0.3-3.7-1.4-4.3c-1-0.6-2.5-3.6-3.2-6.6
	c-1.3-5.4-1.3-5.4-1.4,1.7C103.1,178.4,103.9,181.5,105.8,183.3L105.8,183.3z"/>
<path id="XMLID_175_" class="st6" d="M80.7,274.3c-0.9-1.8-2.1-3.2-2.5-3.2s0,1.4,0.9,3.2c0.9,1.8,2.1,3.2,2.5,3.2
	S81.6,276,80.7,274.3z"/>
<path id="XMLID_164_" class="st6" d="M28,68.4c0.8,18,1.9,45.3,2.3,60.6c0.5,15.4,1.2,36.9,1.7,47.9c3.4,83.8,4.1,118,3.8,192.3
	c-0.4,89.3,0.1,99.8,5.3,118.9c6.2,22.7,15.5,36.8,32.1,48.4c17.4,12.2,40.8,20.7,98.8,36.2c24.7,6.6,42.4,11.6,53.6,15.3
	c25.1,8.2,48.9,22,68.6,39.6l0,0l10.1,9l10.7-9.4c29.8-26.3,54.3-37.4,118.4-53.6c50.2-12.8,83.7-24.6,99.9-35.3
	c18.6-12.3,29.8-29.7,36.1-56.1c3.2-13.4,3.4-18.6,3.8-123.3c0.4-101.4,1.3-137.9,5.5-233c1.8-40.4,4.8-123.7,4.8-132.9v-6h-26.7
	C464.5-13,378-29.2,318.2-57.5l-13.9-6.6l-8.1,4.1C238-30.5,146.9-13,51.5-13H24.6l1.1,24.3C26.1,24.7,27.2,50.4,28,68.4z
	 M76.1,327.2c18.4,17.3,18.7,17.6,17.8,23.4l0,0c-0.5,3.2-1.1,6.1-1.3,6.3c-0.2,0.2-8.1-7.9-17.6-18c-14.4-15.5-17.3-19.3-17.5-23.8
	C57.4,309.7,57.4,309.7,76.1,327.2z M82.6,395.9c-1.3,1.3-1.9,1.4-1.9,0.1c0-1-0.5-3.1-1-4.7c-1-2.8-0.9-2.8,1.9-0.1
	C83.9,393.3,84.1,394.4,82.6,395.9z M110.2,441.9c-7.8-9.1,0.7-1.4,22.7,20.5c10.9,10.9,19.5,20,19.1,20.4
	C151.3,483.5,117.7,450.7,110.2,441.9z M202.7,513.6c-2.7-0.1-14.2-6.7-16.4-9.3c-1.6-2-1.9-2-1-0.2c1.4,3.1-16.2-14.1-60.1-58.1
	c-19.1-19.3-34.4-35.7-33.9-36.6s0.1-1-1-0.3c-1.2,0.8-2.3,0-2.8-2.1c-0.5-1.8-1.5-3.4-2.3-3.4s-1.4-1.8-1.4-4s0.6-4,1.2-4
	c0.7,0,27.8,26.6,60.2,59C177.7,487.1,203.6,513.6,202.7,513.6z M548.6,244.6c1.3-0.8,1.5-0.2,0.8,1.7c-0.6,1.6-0.3,3.8,0.7,5l0,0
	c2.8,3.4,1.2,2.5-5.4-2.8c-5.2-4.2-6-5.8-6-11.5v-6.6l4.9,5.3c2.7,2.9,4.5,6.4,4,7.6C547.1,244.9,547.4,245.3,548.6,244.6z
	 M117.2,123.6c2-1.8,3.4-2.2,4.1-1c0.6,0.9,0,3.2-1.2,4.9c-1.9,2.7-2.6,2.9-4.1,1C114.6,126.8,114.9,125.7,117.2,123.6z M91.7,159.4
	c0.9,0,1.9-1.3,2.3-2.8c0.6-2.2,0.8-2,0.9,0.7c0.2,3.9-2.2,6.2-3.8,3.7C90.5,160.1,90.8,159.4,91.7,159.4z M67.5,223.6
	c1.3,1.3,2.1,4.5,1.8,7.4c-0.5,5.1-0.5,5.1-3.3,1.8C62.3,228.5,63.7,219.9,67.5,223.6z M67.7,292.3c-8.7-8.4-11-11.6-10.7-14.8
	c0.2-2.2-0.2-5.1-1-6.4s3.3,1.8,9.1,6.8c14.4,12.6,15.9,8.4,2-5.4c-5.6-5.6-10.2-10.7-10.2-11.5c0-0.7,0.6-1,1.4-0.5
	c0.8,0.5,1.2-1,0.9-3.2c-0.4-4-0.4-4,3-1.2c1.9,1.6,6.2,5.4,9.6,8.5c4.8,4.3,6,4.9,5.3,2.4c-0.5-1.8-1.4-5.2-2-7.7s-1.6-3.8-2.2-2.8
	c-0.7,1.1-2.9-0.2-6.1-3.4c-8.7-9.1-8.6-19.7,0.2-11.6l4.2,3.9v-14c0-7.7-0.5-14.5-1.1-15.1c-1.8-1.8-2.2-7.2-0.6-8.1
	c2-1.2,17.7,13.2,17.7,16.3c0,1.4,0.4,2.1,0.9,1.6c2.1-2.1-2.5-12-8.5-18.2c-5.6-5.8-7.2-10.2-5.4-14.6c0.1-0.3,2.3,1,4.9,2.8
	c3.4,2.4,4.9,4.9,5.3,9.3c0.5,4.8,0.7,4.3,0.9-2.5c0.2-7-0.4-9.2-3.6-12.6c-3-3.2-3.5-4.9-2.4-7.1c2.3-4.3,6.2-1.8,6.5,4
	c0.2,4.7,0.3,4.5,1.8-1.8c1.3-5.4,1.2-7.4-0.7-9.6c-2.8-3.4-2-8.4,1.4-8.4c1.8,0,2.2,1.1,1.6,4.4c-0.5,2.4,1.2-0.1,3.8-5.6
	c5.2-11,7.9-12.7,7.9-4.8c0,3,0.5,4.4,1.2,3.3c1.7-2.7,4.7-0.4,5.5,4.3c0.5,2.7,0.8,1.8,1-2.7c0.1-3.7-0.3-6.9-1-7.2
	s-3.2-2.7-5.6-5.4c-3.9-4.4-4.2-5.2-2.1-7.9c2.2-3,2.3-3,5.6-0.1c1.8,1.7,3.4,4.9,3.4,7.2c0.1,3.2,0.6,2.5,2.4-3
	c2.5-8,2.9-11.4,1-8.3c-1,1.6-2,1.3-4.1-1.1c-2.7-2.9-2.7-3.3-0.2-5.8c2.2-2.2,3-2.3,5.2-0.5s2.8,1.7,4.3-0.9c1-1.6,3.5-5.1,5.5-7.6
	c3.2-4,3.5-5,1.6-7.3c-1.5-1.9-1.6-2.3-0.2-1.5c1.2,0.7,2,0.3,2-1.2c0-4.6,2.6-3.9,10.2,2.6c5.5,4.7,8,6,8.9,4.6
	c0.8-1.2-1.3-4.4-5.6-8.6c-6.5-6.4-6.7-6.8-4-9.4c2.7-2.6,3.1-2.5,9.6,3c3.9,3.4,6.4,6.7,5.9,8c-0.7,1.7,0,1.6,3-0.3l3.8-2.5l-7-6.5
	c-3.9-3.6-7-7.5-7-8.8s0.7-1.8,1.6-1.3s1.6,0.2,1.6-0.7c0-3,2.6-1.8,10.2,4.8c4.1,3.6,7,7.3,6.4,8.1s0.6,0.8,2.6-0.3
	c3.5-1.9,3.5-2-3.2-8.8c-4.3-4.4-6.3-7.6-5.5-8.9c0.8-1.4,0.6-1.6-0.8-0.7c-1.4,0.8-1.8,0.5-1.3-1c2-5.9,7-2.4,32.7,22.8
	c16.1,15.9,26.8,25.2,27.3,23.9c0.4-1.2-10.2-13.2-24.3-27.5c-13.8-14-24.8-26.3-24.4-27.4c1.9-5.7,7.2-1.9,33.4,23.8
	c17,16.7,27.7,26,28.1,24.7c0.4-1.2-9.6-12.5-23.6-26.5c-16.3-16.4-23.9-25-23.1-26.4c0.8-1.3,0.6-1.6-0.5-0.9
	c-1,0.6-2.2,0.4-2.7-0.5c-0.5-0.8,0.3-2.2,1.9-3.1c3.8-2,4.6-1.4,34.3,27.9c14.5,14.4,25.9,24.4,26.9,23.7c1.1-0.7-8.9-11.9-24.9-28
	c-22.3-22.6-26.3-27.3-24.7-29.3c3.1-3.8,7-0.8,35.5,27.2c14.4,14.1,27.3,25.7,28.8,25.7s2.6-0.2,2.3-0.4C227,86.1,204,62,204,60.5
	c0-1.1,0.5-1.5,1.1-0.9s2,0.3,3.2-0.7c1.6-1.3,2.1-1.3,2.1,0.1c0,1,0.6,1.5,1.3,1.1s14.5,12,30.7,27.7c16.2,15.6,30,28.1,30.7,27.7
	c0.7-0.4-11.3-13.6-26.7-29.3s-28-29.2-28-30.1c0-0.9,1.5-2,3.4-2.6c3.7-1.2,3.9-1.1,42.6,36.8c12.6,12.3,23.3,22.4,24,22.4
	c0.6,0,2.2,0.6,3.5,1.4c1.3,0.8-7.8-8.9-20.2-21.6c-12.4-12.6-26.6-27.3-31.4-32.5l-8.8-9.6l4.3-1.2c4.9-1.3,4.2-1.9,44.5,37.7
	c14.2,14,27,25.6,28.5,25.8c1.4,0.2,2.4,0.1,2.1-0.2s-12-12.3-26.1-26.6c-28.6-29.2-39.3-40.6-36.3-38.9c1.1,0.6,2,0.4,2-0.5
	s1.6-1.5,3.5-1.3c2.2,0.2,16.1,12.6,37.7,33.8c18.8,18.5,35.7,34.1,37.5,34.8s2.8,0.7,2,0c-20.4-19.9-67.7-69.9-67.1-70.9
	c0.5-0.7,2.6-1.4,4.8-1.4c3,0,13.4,9.3,43.8,39.3c21.9,21.6,39.9,38.8,39.9,38.1s1.3-0.3,2.8,0.9c4.8,3.7-4.4-6.2-27.5-29.6
	c-31.1-31.5-47.1-48.2-47.1-49.4c0-0.5,2.2-1,4.9-1c4.3,0,10.5,5.5,49.1,43.6c40.1,39.6,54.5,52.7,54.5,49.7
	c0-0.6-19.5-20.7-43.2-44.6c-23.8-23.9-44.2-44.9-45.4-46.6c-2-2.8-1.8-3.1,2.9-3.1c4.6,0,13,7.8,87.8,82.3
	c55.7,55.5,82,80.7,80.6,77.2c-1.3-3.1-32.3-35.4-78.7-81.8l-76.6-76.6h6.2c6,0,8.2,1.9,82.3,75.4c41.8,41.5,79.3,78.4,83.1,82
	c3.9,3.6,9.8,9.7,13.1,13.6c5,5.8,5.9,6.3,5,3c-1.5-5.6-25.1-29.9-36.4-37.4c-5.2-3.4-11.6-9.5-14.3-13.6
	c-2.7-4-30.3-32.9-61.2-64.1s-56.3-57.2-56.3-57.7c0-2,11.8,2,15.7,5.4c2.3,2,27.2,26.3,55.4,54s54.7,52.7,59,55.7
	c4.9,3.3-12.8-15.5-45.6-48.7c-29.4-29.7-55.3-56.1-57.5-58.7l-3.9-4.6l4,2.1c2.2,1.1,4.2,1.9,4.4,1.8c2.6-1.9,12.5,6.4,38.2,32.2
	c21.2,21.2,30.9,29.9,31.3,28.1c0.4-1.6-6.2-9.6-17.9-21.6c-21.4-22-34.5-36.2-29.3-31.8c2,1.6,3.6,2.5,3.6,1.9s2.6,0,5.9,1.4
	c6.1,2.5,72.9,67.3,75.7,73.4c1.1,2.4,1.3,1.9,0.6-2.2c-0.5-3-0.8-6.7-0.8-8.3c0-1.8-0.8-2.6-2.1-2.1c-2.6,1-34.9-32.6-33.5-34.9
	c0.6-0.9,0.3-1.2-0.6-0.7s-4.7-2.3-8.6-6.3c-5.2-5.4-6-6.8-3.1-5.3c2.2,1.1,4.3,2.5,4.8,3c0.4,0.5,3.6,2.4,7,4.1
	c3.4,1.7,19.2,16.3,35.1,32.2c32.1,32.3,33.9,34.2,33.3,35.9c-0.2,0.7,0.3,1.2,1.2,1.2s2.9,2.7,4.4,6s3.1,6.3,3.6,6.8
	c0.4,0.4,2.2,2.6,4,4.8c2,2.5,1,2-2.7-1.4c-3.2-3-5.4-6.2-4.9-7.2s0.4-1.2-0.3-0.5c-1.8,1.6-8.9-5.2-7.7-7.3
	c0.5-0.9,0.3-1.2-0.6-0.6c-2.2,1.4-8.8-6.1-14-15.9c-2.4-4.5-6.6-10.3-9.3-12.8c-4.6-4.3-4.6-4.1,0.8,2.7
	c9.9,12.6,15.6,27.8,15.7,42c0,2.8,1.4,7.3,3.2,9.9l3.2,4.8V175c0-2.5-1-5.4-2.2-6.4s-2.6-5.3-3.2-9.6l-1-7.8l3.1,3.9
	c1.7,2.1,3.4,6,3.7,8.6l0.7,4.7l0.2-5.1c0.5-10.8,4-7.9,11,9.1c2,4.8,3.3,7.1,2.9,5c-0.7-3.6-0.4-3.5,4.7,1.4c3,2.9,5.1,5.9,4.6,6.6
	s-0.1,1.3,0.9,1.3c1.5,0,4.7,6,5.4,10.4c0.2,0.9,0.9,2.7,1.7,4s-0.5,0.7-2.8-1.4s-3.8-4.5-3.2-5.4c0.5-0.9,0.3-1.2-0.6-0.6
	c-2,1.2-7.9-5-8.8-9.3c-0.4-1.8-0.3,4.3,0.1,13.6c0.7,15.6,1,17.1,5.2,21.9c4.1,4.7,4.6,4.9,5.5,2c0.7-2.3-0.3-4.3-3.9-7.3
	c-4.1-3.4-4.9-5.3-4.9-11.1v-7l6.8,7.5c3.7,4.1,7.9,8.4,9.2,9.4s1.9,2.4,1.3,3c-0.6,0.6-0.3,2.7,0.7,4.5c1,1.9,1.7,3.9,1.5,4.6
	s0.4,1.2,1.3,1.2s1.6,0.8,1.6,1.7c0,2.8-7.7-3.8-8.5-7.3c-0.4-1.8-0.8,1.5-0.9,7.2c-0.1,5.7-0.6,14.3-1,19.2
	c-0.5,5.3-0.3,7.2,0.5,4.9c1.2-3.8,1.4-3.7,8.3,4.4c4.8,5.5,7.2,9.8,7.3,13.1c0.2,5.6-0.4,5.3-11.7-5.4c-3.7-3.5-6.8-5.6-6.8-4.6
	s-0.5,3.1-1.1,4.6c-0.7,1.8-0.5,2.4,0.6,1.7c2.1-1.3,18.4,16.2,17.1,18.3c-0.5,0.8-0.3,1.3,0.4,1.1c1.6-0.5,2.1,0.8,2.1,5.2
	c0,1.8-0.7,2.8-1.6,2.3c-0.9-0.6-1.2-1.7-0.7-2.5s-0.1-1.1-1.3-0.6c-1.3,0.5-5.9-3.1-11.2-8.6c-6.7-7-9.2-8.8-9.9-7
	c-0.6,1.6,3,6.5,10.4,14.1c6.2,6.4,10.9,12.4,10.3,13.4c-0.6,0.9-0.2,1.5,0.9,1.2c2.3-0.5,3.3,3.9,1.5,6.8c-0.9,1.5-3.9-0.4-10.8-7
	l-9.5-9.1l-1,5.9c-0.5,3.3-0.6,6.3-0.2,6.7c0.4,0.4,0.7-0.4,0.7-1.9s0.6-2.7,1.4-2.7c2.3,0,16.2,16.3,15.2,17.8
	c-0.5,0.8,0.1,1.2,1.2,1c1.2-0.2,1.8,0.6,1.5,2c-0.3,1.3-0.6,3.7-0.5,5.2c0.1,2.6-3.6-0.4-19.7-16c-1.7-1.6-2.2-1.5-2.6,0.4
	c-0.3,1.3,4.3,7.6,10.3,13.9c11,11.7,11.8,13.1,9.3,17.1c-1.1,1.8-3.9,0-12.9-8.4c-13.7-12.7-18.3-12.5-6.1,0.3
	c12.4,13.1,18.4,20,15.8,18.5c-1.7-1-2-0.6-1.2,1.4c0.6,1.6,0.4,2.3-0.5,1.8s-1.6-0.3-1.6,0.6s0.9,1.9,2,2.4s1.3,0.9,0.4,0.9
	c-0.9,0.1-7.9-5.8-15.6-13.1c-7.7-7.3-14.5-12.7-15.1-12c-0.6,0.6,5.4,8.1,13.5,16.6c13.5,14.1,14.5,15.7,12.9,19.2
	c-0.9,2.1-2.4,3.4-3.1,2.9c-0.8-0.5-0.9-1.6-0.3-2.6c0.6-1,0.4-1.3-0.5-0.8c-0.8,0.5-6-3.2-11.4-8.3c-8.8-8.2-9.9-8.8-9.9-5.5
	c0,2,0.6,3.7,1.3,3.7s5.6,4.8,10.9,10.8c8.4,9.5,9.4,11.2,7.8,14.2c-1.7,3.3-2.1,3.1-11.7-5.6c-5.5-5-10-10.1-10-11.4
	s-0.8-0.6-1.6,1.5c-1.4,3.5-0.5,5,8.8,14.4c9.5,9.6,10.2,10.8,8.4,14.1c-1.9,3.5-2.1,3.4-13.4-6.8c-6.6-6-11.8-9.7-12.4-8.7
	c-0.6,0.9,1,3.7,3.5,6.1s7.7,7.8,11.7,12c6.4,6.8,6.9,7.8,4.4,9.2c-1.6,0.9-2.3,2.4-1.7,3.5c1.9,3-14.7-11.2-19.9-17.1
	c-3.4-3.9-5.2-4.9-6.5-3.7c-1.2,1.2,1,4.5,7.8,11.5c13.5,13.8,14.7,15.7,12.1,19.2c-1.9,2.6-3.2,1.8-15.9-10.4
	c-9.7-9.3-14.4-12.8-15.5-11.6c-1.2,1.2-0.7,2.4,1.7,4c2.3,1.6,3,3.3,2.4,5.4c-0.7,2.1-0.5,2.4,0.5,1c1.1-1.5,4.1,0.7,11.6,8.6
	c9.1,9.5,9.9,10.8,7.5,12.6c-1.5,1.1-2.2,2.6-1.5,3.3c2.7,3.2-5.8-3.7-13.2-10.7l-8-7.6l-3.1,4.3c-2,2.8-2.2,3.6-0.6,2.3
	c2.2-1.7,3.8-0.6,11.5,7.7s8.7,10.2,7.3,12.8c-1.7,3.1-1.7,3.1-6.1,0c-2.4-1.7-7.3-6.3-10.9-10.2c-4.8-5.2-7.1-6.7-9-5.7
	c-2,1.1-0.8,3,6.3,9.7c11,10.4,12.8,13.6,9.7,16.7c-2.1,2.1-3.7,1.1-14.1-8.7c-15.7-14.9-19.3-13.2-4.6,2.2
	c6.2,6.5,11.2,12.5,11.2,13.2c0,0.8-1.1,2.3-2.4,3.4c-2,1.7-4.3,0.2-13.8-9c-6.3-6-12.2-11.7-13.1-12.7s-2.9-1.4-4.3-1.1
	c-2,0.5-0.4,2.7,6.1,8.9c4.8,4.5,10.9,11,13.6,14.4c4.5,5.7,4.6,6.3,2.2,8.7c-2,2-2.6,2.1-2.6,0.4c0-1.2-0.5-1.7-1-1.2
	c-0.6,0.6-4.5-2.2-8.7-6.1c-4.2-3.9-8.4-7.2-9.2-7.2c-2.6,0-3.5,2.8-1.2,3.7c1.2,0.4,5.1,4.4,8.8,8.9c6.5,7.7,6.6,8.1,3.5,9.8
	c-2.7,1.5-4.1,1-8.4-3c-11-9.9-14.8-12.9-16.8-12.9c-1.1,0,0.4,2.7,3.4,6s7.4,8.3,9.7,11.1l4.2,5.1l-3.4,1.8c-1.9,1-3.7,1.5-4.2,1
	s-5.4-4.9-11-9.9s-9.9-9.6-9.5-10.3s-0.9-0.9-2.8-0.5c-3.2,0.6-2.3,1.9,8,12.8c11.2,11.8,11.4,12.2,8.3,14.5
	c-3.6,2.5-2.9,3.1-22.9-16c-10.8-10.3-17.6-12.8-8.7-3.2c3,3.3,5.9,6.3,6.4,6.8s4.4,4.7,8.7,9.3c6.3,6.8,7.4,8.8,5.5,10
	c-1.3,0.8-3.2,1.5-4.2,1.5c-1.1,0-10.4-8.1-20.7-18.1c-26.1-25.1-30.5-25.1-6,0c10.9,11.2,19.9,20.8,19.9,21.4
	c0,0.6-1.9,1.5-4.2,1.9c-3.7,0.7-7.6-2.6-32.6-26.9c-15.6-15.3-29.3-27.7-30.4-27.7c-2.3,0-3.8-1.6,29.5,32.6
	c13.6,14,24.4,25.9,24,26.5s-2.1,1.5-3.9,2c-2.4,0.6-6.9-2.7-18.4-13.8c-13.2-12.7-15.6-14.3-17.9-12.6c-2.1,1.6-2.2,2-0.4,2.2
	c1.3,0.1,7.7,5.9,14.3,12.9c11.3,12,11.8,12.8,8.9,14.9c-3.3,2.4-6.5,1.6-4.7-1.2c0.7-1.1,0.3-1.3-0.9-0.5
	c-1.3,0.8-12.2-8.9-31.8-28.3C329,477,314,462.9,312.1,461.9c-3.9-2-7-2.4-4.5-0.6c4.9,3.6,63,64.1,63,65.6c0,1-1.9,1.8-4.2,1.8
	c-3.4,0-11-6.7-37.4-32.9c-21.1-21-33.8-32.5-35-31.7c-1.3,0.8,8.7,11.8,28.8,31.9c20.7,20.7,30.3,31.4,29.5,32.8
	c-0.8,1.3-0.6,1.6,0.5,1c1-0.6,2.1-0.5,2.5,0.2s-1.4,1.5-4.1,1.7c-4.4,0.3-8-2.7-35.5-30c-27.3-27-34.4-33.1-34.4-29.3
	c0,0.6,13,14.3,29,30.4c21,21.2,28.5,29.7,27.2,31c-3.7,3.7-10-1-36.9-27.3c-15.3-14.9-28.4-26.7-29.2-26.2
	c-0.8,0.5,10.1,12.7,24.4,27.2c19.5,19.9,25.4,26.7,24,28.1c-3.1,3.1-10.8-2.5-34.3-25.2c-12.2-11.8-22.8-21-23.6-20.5
	c-0.8,0.5,7.2,9.8,17.9,20.7c11.9,12.2,18.9,20.5,18.2,21.6c-0.7,1.1-0.5,1.4,0.5,0.8c0.9-0.6,2.5,0,3.6,1.3c1.7,2,1.2,2.4-3,2.4
	c-2.7,0-5-0.7-5-1.6s-0.6-1.4-1.3-1.2c-2,0.6-43.4-39-43.4-41.5c0-1.2-0.6-1.8-1.4-1.3c-0.8,0.5-5.5-3.4-10.5-8.7
	c-5-5.2-10.4-9.5-11.9-9.5c-1.8,0,4.2,6.9,16.2,18.8c10.5,10.3,23.9,24.2,29.9,30.8l10.9,12l-4.7,0.4c-2.6,0.2-4.7-0.4-4.7-1.3
	c0-0.9-0.7-1.4-1.5-1.2s-15.1-12.7-31.8-28.7s-31.2-29.1-32.4-29.1c-1.2,0,7.6,9.9,19.4,21.9c11.9,12.1,24.8,25.4,28.7,29.6l7.1,7.6
	l-7.8-2.4c-8.2-2.5-8.1-2.3-46.5-39.8c-19.8-19.3-22.6-21.7-25.5-21.7c-0.9,0,4.1,5.9,11.2,13.1c7.1,7.2,19.7,20.1,27.9,28.7
	l14.9,15.5l-8.6-2.7c-8.1-2.5-12.7-6.8-80.6-74.5c-39.6-39.5-73.1-73.6-74.5-75.8s-3-6.5-3.5-9.6c-1-5.5-0.7-5.3,13.9,8.9
	c35.9,35,41.2,39.8,40.2,36.6c-0.5-1.8-8.4-10.8-17.4-20c-26.6-27.1-38.4-40.1-37.9-41.8c0.2-0.9-0.3-1.1-1.1-0.6
	c-1.9,1.2-5.4-4.9-4.4-7.6c0.4-1,0-3.3-0.9-5.1c-1.8-3.4,31.9,27.4,35.1,32.2c1.6,2.4,1.7,2.1,0.4-1.6c-1.8-5.3-2.1-17.1-0.4-17
	c0.7,0,4.2,3.1,7.9,6.8c5.3,5.4,19.7,15.7,16.4,11.9c-0.4-0.5-10.5-10.9-22.3-23c-41.9-43-41.3-42.2-42-48.9l-0.7-6.1l6.5,6.1
	c3.6,3.4,9.6,9.1,13.4,12.7c3.7,3.6,6.8,6.4,6.8,6.2C82.3,309.2,76.5,300.8,67.7,292.3z"/>
<path id="XMLID_163_" class="st6" d="M93,300.8c5.1,4.5,12.1,12.4,15.6,17.6s7.3,10,8.4,10.7s2,2.7,2,4.4c0,1.7,0.4,3.1,1,3.1
	c0.5,0,0.5-2.5-0.1-5.5c-0.8-4.2-5.7-10.2-21-25.9c-11-11.3-18.9-18.7-17.6-16.5C82.7,290.8,87.9,296.3,93,300.8z"/>
<path id="XMLID_162_" class="st6" d="M104.1,223.2c0.6,0,0.7-0.4,0.1-1c-0.5-0.5,0.2-2.1,1.5-3.5c1.7-1.7,1.9-2.7,0.7-3.1
	c-1-0.3-1.9-2.2-2-4.1c-0.1-2.4-0.6-1.9-1.7,1.9c-0.9,3-1.2,6.4-0.7,7.6C102.6,222.2,103.4,223.2,104.1,223.2z"/>
<path id="XMLID_161_" class="st6" d="M107.6,239.5c-0.7,1.2,0.2,3.5,2.2,5.6c2.5,2.7,3.7,3.1,4.6,1.6c0.7-1.2-0.2-3.5-2.2-5.6
	C109.7,238.5,108.5,238.1,107.6,239.5z"/>
<path id="XMLID_160_" class="st6" d="M135.5,151.6c-1.6,1.3-1.6,2.1-0.1,3.8c3.6,4.1,6.7,2,3.9-2.6
	C138,150.8,136.9,150.4,135.5,151.6z"/>
<path id="XMLID_159_" class="st6" d="M133.4,133.2c1.8,3.4,2.2,3.6,4,1.1c1.6-2.2,1.4-3.1-1.4-5.4
	C131.9,125.5,130.6,127.8,133.4,133.2L133.4,133.2z"/>
<path id="XMLID_158_" class="st6" d="M115.4,193.9c1.2-0.7,2.4-0.2,3,1.3c0.8,2,1.5,2.1,3.2,0.7c1.2-1,2-2,1.8-2.1s-1.6-1.1-3-2.2
	c-2.1-1.6-3-1.5-4.8,0.8C114.1,194.2,114.1,194.7,115.4,193.9z"/>
<path id="XMLID_157_" class="st6" d="M123.6,165.1c0.8-2.2,1.6-2.5,2.4-1.2c0.7,1.1,1.9,1.5,2.7,1c0.8-0.5,0.2-2.6-1.3-4.6
	c-3.5-4.7-5.2-3.7-5.1,2.8C122.4,167.1,122.7,167.5,123.6,165.1z"/>
<path id="XMLID_156_" class="st6" d="M103.9,197.2c-0.5,1.3,0.7,4.1,2.7,6.1c3.9,4.1,5.3,4.6,6.7,2.4c0.5-0.8-1.2-3.6-3.8-6.2
	C105.9,195.9,104.6,195.4,103.9,197.2z"/>
<path id="XMLID_155_" class="st6" d="M131.2,134.3c-1.3-1.3-4.3,10.2-3.3,12.9c0.6,1.5,1.6,2.6,2.3,2.6c1.4,0,3.4-6.7,2.3-7.8
	c-0.4-0.4-0.7,0.1-0.7,1.2s-0.7,1.5-1.5,1c-1-0.6-1-2.5,0-5.1C131.1,136.9,131.5,134.7,131.2,134.3z"/>
<path id="XMLID_154_" class="st6" d="M134.7,247c0.6-1.8-2.7-6.2-4.7-6.2c-2.4,0-1.5,3.5,1.4,5.7C133,247.6,134.4,247.9,134.7,247z"
	/>
<path id="XMLID_153_" class="st6" d="M136,327.3c0.4-1.1,0.4-2.9,0-4s-0.8-0.2-0.8,2S135.6,328.4,136,327.3z"/>
<path id="XMLID_152_" class="st6" d="M136,348c3.5,3.7,4.6,4.2,5,2.2c0.6-2.8-6.1-9.1-8.2-7.7C132.1,342.9,133.5,345.4,136,348
	L136,348z"/>
<path id="XMLID_151_" class="st6" d="M144.1,201.5c8.2,7.5,10,5.5,2.5-2.8c-4.3-4.7-6.4-6.1-7.3-4.7
	C138.5,195.2,140.2,197.9,144.1,201.5z"/>
<path id="XMLID_150_" class="st6" d="M115.2,227.9c-1.1,1.1-0.3,2.9,2.2,5.6s4.3,3.5,5.4,2.4s0.3-2.9-2.2-5.6
	C118.1,227.7,116.3,226.9,115.2,227.9z"/>
<path id="XMLID_149_" class="st6" d="M124.6,218.4c-0.7,1.1,1.8,4.8,6.5,9.2l0,0c10,9.5,11.7,5.9,1.8-3.9
	C128.1,218.8,125.4,217.1,124.6,218.4z"/>
<path id="XMLID_148_" class="st6" d="M122,273c-0.7,1.2-0.1,3.3,1.5,5c2.4,2.7,2.8,2.7,3.2,0.4C127.5,274.6,123.7,270.2,122,273z"/>
<path id="XMLID_147_" class="st6" d="M132.8,206.9c-0.9,1.5,0.6,3.8,4.8,7.5c8.3,7.2,10.1,5.3,2.6-2.9
	C135.6,206.4,133.8,205.3,132.8,206.9z"/>
<path id="XMLID_146_" class="st6" d="M71.4,250.3c0,2.2,0.4,3.1,0.8,2s0.4-2.9,0-4C71.7,247.2,71.4,248.1,71.4,250.3z"/>
<path id="XMLID_145_" class="st6" d="M212.7,444.4c4.4,3.3,7.3,2.9,5-0.7c-1.1-1.8-3-2.7-4.8-2.2C210,442.2,210,442.3,212.7,444.4z"
	/>
<path id="XMLID_144_" class="st6" d="M116.9,304.2c-4.3-3.8-5.8-0.7-1.8,3.7c2.1,2.3,3.2,2.6,4,1.2C119.9,308,119,305.9,116.9,304.2
	z"/>
<path id="XMLID_143_" class="st6" d="M128.7,185.8c1,1.2,2.9,2.3,4.3,2.3c2,0,2.1-0.4,0.3-2.8c-1.2-1.5-2.3-3-2.5-3.4
	c-0.2-0.3-1.1-0.1-2.1,0.5C127.3,183.3,127.3,184.2,128.7,185.8z"/>
<path id="XMLID_142_" class="st6" d="M253.1,479.2c0-1.6-11.1-11.8-12.8-11.8c-2.7,0-1.7,2.1,3.5,7.5
	C248.3,479.6,253.1,481.8,253.1,479.2z"/>
<path id="XMLID_141_" class="st6" d="M151.7,148.8c1.7-0.6,1.6-1.4-0.5-3.6c-3.7-3.9-7.8-2.4-4.2,1.5
	C148.4,148.3,150.6,149.2,151.7,148.8z"/>
<path id="XMLID_140_" class="st6" d="M117.2,287.3c-0.7,1.2-0.1,3.3,1.5,5c2.4,2.7,2.8,2.7,3.2,0.4
	C122.7,289,118.9,284.6,117.2,287.3z"/>
<path id="XMLID_139_" class="st6" d="M175.9,406.8c4.1,4.4,7.7,7.9,8,7.9c1.7,0-4.7-9.5-9.7-14.3
	C165.8,392.4,167.2,397.5,175.9,406.8z"/>
<path id="XMLID_138_" class="st6" d="M189.7,453c-1.9-0.8-4.4-2.9-5.6-4.7c-1.1-1.8-3.7-3.3-5.7-3.3c-3.4,0-3.3,0.3,1.6,4.7
	c2.9,2.7,7,4.7,9.2,4.7C193.1,454.4,193.1,454.4,189.7,453z"/>
<path id="XMLID_137_" class="st6" d="M197,444.6c-2.7,0.7-2.6,1,0.6,3.7l0,0c5.6,4.7,7.5,4,4.1-1.5
	C200.6,445.1,198.7,444.2,197,444.6z"/>
<path id="XMLID_136_" class="st6" d="M150.5,166.8c-0.8,0.5,1.9,4.4,6.1,8.6c4.2,4.2,8.3,7.3,9.1,6.8s-1.9-4.4-6.1-8.6
	C155.4,169.4,151.3,166.3,150.5,166.8z"/>
<path id="XMLID_135_" class="st6" d="M194,151.4c0-2.8-28.4-30.4-29.2-28.3c-0.4,1.1,5.4,8.3,13,15.9
	C191.1,152.5,194,154.7,194,151.4z"/>
<path id="XMLID_134_" class="st6" d="M183.3,161.5c1.6-1-2.2-5.7-15.3-18.5c-5.9-5.8-8.9-9.9-8.2-11.2c0.8-1.4,0.6-1.5-0.6-0.4
	c-3.7,3.5-2.3,6.1,9.9,18.3C176.1,156.7,182.5,162,183.3,161.5z"/>
<path id="XMLID_133_" class="st6" d="M205.2,142.4c0-0.6-7.3-8.5-16.3-17.6c-11.2-11.4-16.6-15.9-17.5-14.5
	c-0.8,1.3,4,7.3,14.2,17.6C199.2,141.5,205.2,145.9,205.2,142.4z"/>
<path id="XMLID_132_" class="st6" d="M159.1,156.3c-0.3,1,2.5,4.9,6.2,8.8c3.8,3.8,7.5,6.5,8.3,6s-2-4.4-6.2-8.8
	C163.2,158,159.5,155.3,159.1,156.3z"/>
<path id="XMLID_131_" class="st6" d="M145.8,377.1c1.5-0.9-3.4-8.9-8.3-13.8c-8.3-8.3-7.4-2.6,1,6.6
	C142.3,374,145.5,377.3,145.8,377.1z"/>
<path id="XMLID_130_" class="st6" d="M124.2,368.2c-2.5-2-2.6-1.9-0.6,0.6c2.1,2.7,3.4,3.5,3.4,2.2
	C127,370.7,125.7,369.4,124.2,368.2z"/>
<path id="XMLID_129_" class="st6" d="M126.8,258.5c-0.9,1.5-0.5,2.9,1.3,4.2c3.5,2.6,4.4,1.5,2-2.9
	C128.6,257,127.9,256.7,126.8,258.5z"/>
<path id="XMLID_128_" class="st6" d="M174.7,419.9c-2.1-2.4-3.9-4.5-3.9-4.6s-1.9-0.6-4.3-1.2l-4.3-1l4.6,4.6c2.6,2.6,5.6,5,6.7,5.5
	C178.1,425,178.4,424.1,174.7,419.9z"/>
<path id="XMLID_127_" class="st6" d="M149,413.4c-5.1-4.5-11.2-8.2-13.2-8.2c-0.6,0,1.2,1.9,3.9,4.1c2.7,2.3,4.5,4.7,4.1,5.5
	c-0.5,0.7,0.4,1.7,2,2.1C153.3,418.8,154.2,417.9,149,413.4z"/>
<path id="XMLID_126_" class="st6" d="M166,449.4c-3.8-3.7-9.8-8.4-13.3-10.4c-6.3-3.5-6.2-3.4,3.5,6.5c5.5,5.6,11.5,10.3,13.3,10.4
	C172.3,456.2,171.7,455.1,166,449.4z"/>
<path id="XMLID_125_" class="st7" d="M106.7,314.2c-0.8,0,0.7,2.9,3.1,6c2.7,3.6,2.9,2.1,0.2-2C108.6,316,107.1,314.2,106.7,314.2z"
	/>
<path id="XMLID_124_" class="st7" d="M93.5,167.3c0.9-1.3,1.5-3.1,1.5-4s-0.7-0.5-1.5,0.8c-0.9,1.3-1.5,3.1-1.5,4
	C91.9,169,92.6,168.7,93.5,167.3z"/>
<path id="XMLID_123_" class="st7" d="M102.5,163.8c0.4-1.5,0.4-4,0-5.6c-0.4-1.5-0.7-0.3-0.7,2.8S102.1,165.3,102.5,163.8z"/>
<path id="XMLID_122_" class="st7" d="M116.5,364.4L116.5,364.4c3.3,2.6,4.1,3,4.1,1.7c0-0.4-1.6-1.5-3.6-2.5
	C113.6,361.9,113.5,362,116.5,364.4z"/>
<path id="XMLID_121_" class="st7" d="M119.9,129c-0.4,0-1.6,1.4-2.5,3.2s-1.3,3.2-0.9,3.2s1.6-1.4,2.5-3.2
	C119.9,130.5,120.3,129,119.9,129z"/>
<path id="XMLID_120_" class="st7" d="M145.6,377.5c0.3-0.3-0.1-2.4-0.9-4.5c-0.8-2.1-1.6-3-1.6-2c-0.1,1,0.3,3,0.9,4.5
	C144.5,377,145.2,377.9,145.6,377.5z"/>
<path id="XMLID_119_" class="st7" d="M112.6,143.4c-0.9,1.3-1.5,3.5-1.5,4.8c0.1,1.6,0.6,1.3,1.5-0.8
	C114.5,143,114.5,140.5,112.6,143.4z"/>
<path id="XMLID_118_" class="st7" d="M88.1,183.7c0.4-1.1,0.4-2.9,0-4s-0.8-0.2-0.8,2C87.3,183.9,87.7,184.8,88.1,183.7z"/>
<path id="XMLID_117_" class="st7" d="M106.9,356.9c1.7,2,3.3,3.6,3.6,3.6c1.3,0,0.3-1.3-3-4.1l-3.6-3L106.9,356.9z"/>
<path id="XMLID_116_" class="st7" d="M37.1,266.7c0.4-1.1,0.4-2.9,0-4s-0.8-0.2-0.8,2S36.6,267.8,37.1,266.7z"/>
<path id="XMLID_115_" class="st7" d="M41,345c-1.5-2.6-1.7-2.6-1.7,0.5c0,1.8,0.5,3.8,1.1,4.5C42.3,351.8,42.7,348,41,345z"/>
<path id="XMLID_111_" class="st7" d="M28.8,85.2C30,115,31.9,165.8,33,198.1c1.1,32.3,2.3,58.3,2.7,57.9s0.7-6.6,0.5-13.8
	c-0.2-11.9,0-12.8,2.4-10.8s2.5,1.8,1.3-1.8c-1.5-4.6-2.2-13.2-1.1-12c0.4,0.4,1.8-0.5,3.1-2c1.4-1.7,1.8-1.9,1.1-0.4
	c-1,2-0.8,2,1.1,0.3c1.9-1.7,1.9-2.3,0.1-3.4c-2.9-1.8-0.8-11.9,2.2-10.7c1.2,0.4,2.5-0.2,3-1.4s0-2.5-1-2.8c-1.3-0.4-1.3-2,0.3-5.7
	c1.2-2.8,2.7-4.7,3.4-4.3c2.1,1.3,3.4-2.2,1.9-5.2c-1.5-2.9,1.5-10.9,3.3-9c0.5,0.5,1.7,0.5,2.7-0.2c1.3-0.8,1.3-1.7,0-3.2
	c-2.3-2.8,0.9-9.4,4-8.2c1.2,0.5,2.5-0.2,3-1.4s0.2-2.4-0.6-2.7c-0.8-0.3-0.5-2.4,0.7-4.8s1.8-4.8,1.2-5.5c-0.6-0.7,0.1-0.4,1.5,0.7
	c2.5,1.9,4.6,1.2,4.6-1.6c0-0.8-0.7-1-1.6-0.4s-0.4-1.6,1.1-4.7c1.6-3.4,3.7-5.5,5.2-5.3s2.3-0.6,2-1.9c-0.8-3.6,3.2-9.7,6-9.3
	c1.7,0.3,2.4-0.6,2.1-2.9c-0.2-1.8,1-4.6,2.8-6.2c2-1.8,3.2-2.2,3.2-1c0,1.1,0.8,1.5,1.7,0.9c0.9-0.6,1.4-2,0.9-3.1
	c-0.4-1.1,0.2-3.5,1.4-5.2s1.7-3.7,1.1-4.4s0.4-0.4,2.2,0.5c3.8,2,5.6,1,4.3-2.3c-1.2-3.3,2.6-7.2,6.5-6.7c2.5,0.3,3.3-0.3,3.1-2.6
	c-0.3-3.9,4.1-7.4,7.9-6.3c1.9,0.6,2.8-0.1,2.8-2.1c0.1-4.3,3.7-8.3,7.2-8c2.1,0.2,3-0.6,2.7-2.3c-0.5-2.8,3.2-5.1,8.4-5.3
	c2.1-0.1,3-1,2.8-2.8c-0.5-2.9,4.8-5.4,9.8-4.7c2.2,0.3,2.7-0.3,2.1-2c-1.3-3.4,5.1-7.9,7.9-5.6c3.2,2.7,5.7,0.2,3.6-3.7
	c-1.2-2.3-1.2-3,0-2.2c0.9,0.6,3.1,0.3,4.7-0.5c2.1-1.1,3.6-1,4.9,0.3c1.5,1.5,2.1,1.1,2.8-1.5c1-3.7,7.9-7.7,9.4-5.4
	c1.3,2.1,5.5,0.1,4.6-2.2c-1.1-2.8,6.1-5.8,9.4-3.9c1.8,1,2.7,0.9,2.7-0.3c0-1,0.7-1.3,1.6-0.8c0.9,0.6,1.5,0.4,1.4-0.3
	c-0.6-3.4,0.5-4.6,4-4.6c2.1,0,4.3,0.6,4.9,1.2c1.4,1.4,5.8-0.2,4.9-1.7c-0.4-0.6-0.1-2,0.5-3.1c0.9-1.5,2.3-1.6,5.6-0.3
	c5.1,1.9,9,2.2,8.8,0.5c-0.8-4.9,2.2-5.6,13-2.9c3.1,0.8,3.3,0.7,0.9-0.4c-2.9-1.3-2.9-1.4,0.8-2.6c4.7-1.5,11.4-1.1,13.3,0.7
	c1.8,1.7,6.1,0.1,4.9-1.8c-0.5-0.8,0.1-1.4,1.2-1.5c1.5,0,1.5-0.5-0.3-1.7s-0.9-1.4,3.2-0.6c3.1,0.6,6.7,2,8,3.2
	c1.6,1.4,3.2,1.6,4.8,0.6c1.3-0.8,1.8-1.5,1.1-1.5c-0.7,0-0.3-1,0.8-2.3c1.4-1.6,2.7-1.7,4.1-0.6c1.1,0.9,2,1.1,2,0.5s1.8,0,3.9,1.4
	c4.4,2.9,7.9,3.4,6.4,1c-1.7-2.7,11.4-2.4,14.7,0.3c1.1,0.9,2.7,1.1,3.6,0.5s1.7-0.3,1.7,0.7s0.6,1.7,1.4,1.7s1.3-1.2,1.2-2.6
	s0.9-2.9,2.2-3.3c2.1-0.6,2.1-0.5,0,1c-1.9,1.3-1.4,1.7,2.4,1.7c2.7,0,6.2,1,8,2.2c3.9,2.7,10.6,4.4,9.4,2.5c-2-3.2,1.3-4.8,4.2-2.1
	c1.7,1.5,3,2.2,3,1.5s3.2,0.7,7.2,3c3.9,2.3,7.2,3.7,7.2,3.1s1.3-0.1,2.8,1.1c2.5,2,2.6,1.9,0.8-0.4c-1.7-2.2-1.6-2.8,0.4-3.5
	c1.3-0.5,2.4-0.3,2.4,0.5s2.7,2.3,6,3.3c3.3,1.1,7.5,3.3,9.5,5.1c2,1.8,4.3,2.7,5.4,2c1.2-0.7,1.6-0.6,0.9,0.4
	c-0.6,0.9,0.5,2.1,2.4,2.6c2.6,0.7,2.9,0.4,1.6-0.9c-3.3-3.3-1.9-4.5,2.1-1.9c2.2,1.4,4.8,2,5.8,1.4c1.1-0.7,1.5-0.5,0.9,0.5
	c-0.6,0.9,1.6,2.7,4.9,4.1c3.3,1.3,8.1,4.6,10.8,7.3c4.9,5,8.3,6.6,6.2,3c-0.7-1.2-0.5-1.4,0.3-0.7s1.5,2,1.5,2.9s2.5,3.1,5.6,5
	l5.6,3.4l-3.9-4.3c-2.1-2.4-3.1-4.3-2.3-4.3s2.1,0.5,2.8,1.2c1.1,1.1,1.8,1.3,6,1.8c1,0.1,1.4,0.6,0.9,1.2
	c-0.5,0.5,6.3,6.6,15.3,13.4c9,6.8,22.8,19.1,30.7,27.3c14.2,14.8,15.9,16.8,27.7,32.8c3.4,4.6,6.6,7.8,7.2,7.2
	c0.6-0.6,0.7,0,0.1,1.5c-0.5,1.4-0.2,3.1,0.7,3.6c0.9,0.6,1.7,1.9,1.6,3c0,1-2.3-0.6-5-3.7c-5.1-5.8-4.9-4.9,1.4,5.2
	c2.1,3.3,4.4,5.6,5.3,5.1c0.8-0.5,1.1,0.1,0.6,1.4c-0.5,1.4,0.4,3,2.2,4c1.7,0.9,5.7,6.7,8.9,12.9c6.4,12.4,7.3,16,3.2,12.6
	c-2.4-2-2.5-1.9-0.5,1.8c2.8,5.4,4.3,7.9,7.9,13.6c1.7,2.6,3.2,5.3,3.3,6c0.1,0.6,0.8,3.3,1.6,6c0.8,2.9,0.8,4.8-0.1,4.8
	c-0.8,0-1.5-0.8-1.5-1.9c0-1-0.5-1.4-1-0.8c-0.6,0.6,0.9,3.9,3.2,7.4l4.2,6.4l-0.6,44.3c-0.4,24.4-0.8,53.3-0.9,64.3
	c-0.1,11-0.8,18.6-1.5,16.9c-1-2.6-1.3-2.7-2.2-0.5c-0.6,1.5,0,2.9,1.3,3.4c1.5,0.6,2.3,3.2,2.3,7.3c0,7-0.3,7.3-5.1,4.7
	c-3-1.6-3.2-1.4-2.2,3.2c1.3,6-0.3,11.8-3.1,10.8c-1.5-0.6-2,1-1.9,5.4c0.1,4.2-0.8,7.2-2.8,9c-1.6,1.6-2.4,1.8-1.7,0.6
	c0.8-1.4,0.6-1.9-0.4-1.2c-0.9,0.6-1.5,3.9-1.3,7.5c0.3,5.8,0,6.4-3,6c-2.7-0.4-3.3,0.3-2.9,3.1c0.6,4.4-2.3,10.1-4.9,9.6
	c-2.1-0.4-2.1,0.9-0.2,5.9c0.8,2.1,0.6,2.7-0.7,1.9c-1.1-0.7-2.3-0.1-2.9,1.4c-0.5,1.4-2,2.2-3.1,1.8c-3.1-1.2-4.1,1.4-2.3,6.2
	c0.9,2.3,1,3.8,0.2,3.3s-1.9,0.2-2.4,1.6c-0.5,1.4-1.7,2-2.6,1.5c-3.1-1.9-4.7,0.8-3,5.2c0.9,2.4,1.1,3.8,0.5,3.1
	c-0.6-0.6-2.9,0.4-5,2.4c-3.3,3.1-3.6,3.2-2.6,0.6c0.8-2.2,0.6-2.7-0.8-1.8c-1.1,0.7-1.6,2.3-1.1,3.6c1.1,2.9-1.4,7.8-4.7,9.1
	c-1.5,0.6-2.1,0.3-1.5-0.6c0.5-0.9,0.1-1.6-0.9-1.6c-1.2,0-1.5,1.4-0.9,3.9c0.7,2.9,0.2,4.4-2.2,5.6c-1.7,0.9-4.1,1.5-5.2,1.3
	s-2.1,0.7-2.1,2.2c0,3.7-4,7.9-7,7.4c-1.4-0.2-2.6,0.7-2.6,2c-0.1,4.3-4.7,9.5-7.2,8c-3.4-2.1-5-0.2-3,3.5c1,1.9,1.1,2.9,0.2,2.3
	c-0.9-0.5-2.5,0.1-3.6,1.4c-1.2,1.4-3.3,2-5,1.5c-2.7-0.9-3.8,1-3.2,5.8c0.1,1-3,1.5-9.3,1.5c-2.2,0-3.2,0.5-2.3,1.2
	c2.2,1.6,2,6-0.3,6c-1,0-2.4,0.5-3,1.1s-2.4,0.5-3.9-0.3c-3.3-1.7-4.9-0.6-3.7,2.5c0.5,1.2,0,2.2-1,2.2s-1.5,0.6-1,1.4
	c0.5,0.8-2.1,1.1-5.7,0.8c-5-0.4-6.3,0-5.7,1.6c1.1,2.8-5.5,5.8-9.9,4.7c-2-0.5-3.4-0.1-3.4,1c0,1,0.8,1.4,1.7,0.8
	c1-0.6,0.9,0.2-0.2,2c-1.5,2.4-3.5,3-8.8,2.8c-5.2-0.3-6.6,0.2-6,1.8c0.5,1.4-0.3,2.2-2.1,2.2c-2.5,0-2.6,0.3-0.6,1.7
	s1.9,1.6-0.5,0.8c-7-2.3-10.7-2.8-10.5-1.5c0.9,5.1-0.2,5.8-8.4,4.7c-7.4-1-8-0.8-6.2,1.4c1.8,2.1,1.5,2.5-2.1,2.5
	c-2.3,0-4.2,0.8-4.2,1.8c0,1.1-1.2,0.8-2.9-0.8c-4.3-3.9-6.6-3.2-6.8,1.7c-0.1,2.4-0.5,3.4-1,2.2c-0.6-1.5-1.2-1.6-1.9-0.5
	c-0.7,1.2-2.5,1-5.6-0.6c-6-3.1-10-3.2-7.5-0.1c2.8,3.4-4.3,4.6-10.1,1.7c-4.5-2.2-5-2.2-7.3,0.9c-2,2.6-3.5,3.1-7.6,2.2
	c-2.8-0.6-5.2-1.7-5.2-2.4s-0.8-1.4-1.7-1.4s-1.2,0.9-0.5,2c0.8,1.3,0.2,1.2-1.6-0.3c-1.5-1.2-2.7-1.6-2.5-0.8c1.1,5.7-0.7,6-9.7,2
	c-9.5-4.3-11.9-4.9-9.7-2.3c1.5,1.8,1.4,2.4-0.2,3c-3,1-13.1-1.5-13.7-3.5c-0.3-0.9-1.3-1.7-2.1-1.7s-1,0.9-0.4,2s-0.4,0.6-2.4-1.1
	c-3.2-2.8-3.4-2.8-2.4-0.3s0.4,2.7-5.1,1.9c-3.4-0.5-8-2.2-10.2-3.7c-5-3.3-8.5-4-7.5-1.4c0.4,1.1-0.6,1.9-2.3,1.9s-3-0.6-3-1.3
	s-0.7-0.9-1.5-0.4s-1.9,0.2-2.5-0.7s-1.6-1.3-2.4-0.8c-0.7,0.5-3.4-0.9-5.9-2.9c-6.3-5.2-11.7-7.9-11.7-5.9c0,0.9,0.7,1.7,1.6,1.7
	s1.6,0.7,1.6,1.6c0,1-1.8,0.7-4.4-0.6c-2.4-1.2-6.2-2.6-8.4-3.2s-6.9-3.3-10.4-6.2s-8.9-6.6-11.9-8.2l-5.6-2.9l3.6,3.2
	c4.9,4.4,4.5,5.6-1,2.8c-2.5-1.3-5-1.9-5.6-1.4c-0.6,0.6-1,0.1-1-1s-0.7-1.5-1.6-1c-0.9,0.5-1.6,0.4-1.6-0.4s-2.3-2.7-5.2-4.4
	s-10-7.7-15.9-13.3c-8.2-7.9-11.2-9.9-12.8-8.6c-1.3,1.1-2.9,1.2-4.4,0.3c-1.7-1.1-1.8-1.5-0.3-1.5c1.2,0,1.6-0.8,0.9-2
	c-0.8-1.4-0.3-1.3,1.9,0.2c1.7,1.2,1,0.3-1.5-2.1c-4.9-4.6-7.7-4.4-4.1,0.2c1.2,1.6,0.4,1.2-1.9-0.8c-2.2-2-4.6-3.1-5.3-2.4
	s-1,0.5-0.7-0.4c0.5-1.6-16-19-18.1-19.1c-1.7-0.1-3.7-2.5-3.8-4.6c0-1-1-1.7-2.1-1.4c-1.2,0.2-1.6-0.3-0.9-1.4
	c0.7-1.1,6.4,3.5,15.2,12.2c7.8,7.7,14.6,13.6,15.2,13s-3.1-4.8-8.2-9.5c-5.1-4.6-13.6-13.5-18.9-19.6s-10.3-11-11-10.7
	c-0.8,0.2-1-0.2-0.4-1.1s-0.3-2.5-1.9-3.6c-5.7-4.2-16.5-18.9-22.3-30.3c-1.2-2.3-3.2-4.6-4.5-5.1c-1.4-0.5-1.9-1.9-1.3-3.5
	c0.8-2.2,1.6-1.9,4.8,1.9l3.8,4.5l-3.3-6.2c-1.8-3.4-5.4-8.8-7.9-12s-5.5-8.8-6.5-12.5c-1.1-3.7-2.7-6.3-3.6-5.7
	c-0.9,0.6-1.1,0.2-0.4-0.9c0.9-1.5,1.7-1.5,3.4-0.1c3.7,3.1,2.5-0.8-2.5-8.3c-2.6-3.9-4.8-8-4.8-9.1s-0.7-1.6-1.6-1.1
	c-1,0.6-1.6-14.2-1.6-43.3c0-24.3-0.3-43.9-0.8-43.5c-1.6,1.6-0.9,185.9,0.7,198.5c2.1,16.2,7.6,33.1,14.5,44.7
	c14.4,24,42.3,37.6,119.5,58c49.5,13.1,59.6,16.4,79.1,25.8c16,7.7,31.4,18.2,46.1,31.3l0,0l7.8,7l5.7-5.4c3.2-3,7.5-7,9.7-9
	c7-6.4,27.4-19.3,39.3-24.9c16.3-7.7,32.6-12.9,77.3-24.7c41.2-10.8,62.9-17.9,83.8-27.2c8.7-3.9,22.2-13.7,28.9-20.9
	c8.7-9.5,16.1-25.6,20.2-44.2c3.2-14.7,3.4-20.2,3.7-126.3c0.3-103,1.1-136.7,5.4-231.4c2.9-63.6,4.9-132.6,4-134.1
	c-0.5-0.9-12.8-1.5-28.4-1.5c-58.2,0-121-7.4-165.5-19.5c-30.2-8.2-58.1-18.2-75.7-27.2c-8.7-4.5-7.4-4.7-27.2,4.5
	c-13.3,6.1-17.9,7.9-36.7,14.3c-19.5,6.7-56.1,15.6-75.1,18.3c-6.1,0.9-14.7,2.3-19.1,3.1c-14.3,2.7-51.8,5.4-91,6.4l-38.3,1L26,9.3
	C26.3,21.2,27.5,55.3,28.8,85.2z M90.3,459.4c0-2,5.3-0.8,6,1.3c0.3,1,0,1.8-0.7,1.7C92.9,462.2,90.3,460.7,90.3,459.4z
	 M572.4,212.7c0.1-1.9,0.5-2.2,1-1l0,0c0.5,1.2,0.4,2.5-0.1,3.1C572.7,215.3,572.3,214.4,572.4,212.7z"/>
<path id="XMLID_110_" class="st7" d="M81.8,313.6c0.4-0.4,0-2.1-0.9-3.7c-1.9-3.2-2.3-2.2-0.8,1.8C80.6,313.1,81.4,314,81.8,313.6z"
	/>
<path id="XMLID_109_" class="st7" d="M483.3,191.1c-2.5-2-2.6-1.9-0.6,0.6c1.2,1.5,2.5,2.8,2.8,2.8
	C486.8,194.5,485.9,193.2,483.3,191.1z"/>
<path id="XMLID_107_" class="st7" d="M568.5,365.7c0.4-1.1,0.5-3.2,0.1-4.8c-0.4-1.6-0.8-0.7-0.8,2l0,0
	C567.7,365.5,568.1,366.8,568.5,365.7z"/>
<path id="XMLID_106_" class="st7" d="M538.3,235.6c0.4-2.4,0.4-6.4,0-8.8s-0.7-0.4-0.7,4.4S537.9,238,538.3,235.6z"/>
<path id="XMLID_105_" class="st7" d="M499.9,169.3c0.4-1.1,0.4-2.9,0-4s-0.8-0.2-0.8,2C499.1,169.5,499.4,170.4,499.9,169.3z"/>
<path id="XMLID_104_" class="st7" d="M523.9,209.3c0.4-2.8,0.4-7.9,0-11.2c-0.3-3.3-0.6-1-0.6,5.2l0,0
	C523.3,209.4,523.6,212.1,523.9,209.3z"/>
<path id="XMLID_103_" class="st7" d="M531.8,298.6c0.4-1.1,0.4-2.9,0-4s-0.8-0.2-0.8,2S531.4,299.7,531.8,298.6z"/>
<path id="XMLID_102_" class="st7" d="M514.1,162.6c0.4,0,0-1.4-0.9-3.2s-2.1-3.2-2.5-3.2s0,1.4,0.9,3.2
	C512.5,161.1,513.7,162.6,514.1,162.6z"/>
<path id="XMLID_101_" class="st7" d="M448.3,154.6c-0.4,0,0.7,2.2,2.6,4.8s3.8,4.8,4.2,4.8c0.4,0-0.7-2.2-2.6-4.8
	C450.7,156.7,448.8,154.6,448.3,154.6z"/>
<path id="XMLID_100_" class="st7" d="M459.3,168.7c-2.5-2-2.6-1.9-0.6,0.6c2.1,2.7,3.4,3.5,3.4,2.2
	C462.1,171.2,460.9,169.9,459.3,168.7z"/>
<path id="XMLID_99_" class="st7" d="M473.3,179.5c0-0.3-2-1.8-4.4-3.3l-4.4-2.7l3.8,3.3l0,0C472,180,473.3,180.7,473.3,179.5z"/>
<path id="XMLID_98_" class="st7" d="M418.3,454.6c3.3,0,2.8-1.1-0.9-2.1c-1.8-0.5-2.8-0.2-2.3,0.6
	C415.6,454,417.1,454.6,418.3,454.6z"/>
<path id="XMLID_97_" class="st7" d="M394.4,446.8c-0.9-1.5-7.3-3.6-7.3-2.4c0,0.4,1.6,1.3,3.6,2.1l0,0
	C395.4,448.5,395.4,448.5,394.4,446.8z"/>
<path id="XMLID_96_" class="st7" d="M492.3,200c0.4-0.4-0.5-2-2.1-3.5c-2.7-2.6-2.8-2.6-0.8,0.8l0,0
	C490.6,199.1,491.9,200.4,492.3,200z"/>
<path id="XMLID_95_" class="st7" d="M484.9,232.6c-2.5-2-2.6-1.9-0.6,0.6c1.2,1.5,2.5,2.8,2.8,2.8
	C488.4,236,487.5,234.7,484.9,232.6z"/>
<path id="XMLID_94_" class="st7" d="M487.2,292.8c0.4-0.4,0-2.1-0.9-3.7c-1.9-3.2-2.3-2.2-0.8,1.8l0,0
	C486,292.4,486.8,293.2,487.2,292.8z"/>
<path id="XMLID_93_" class="st7" d="M469.5,196.8c0.5,1.4,1.3,2.3,1.7,1.8c0.4-0.4,0-2.1-0.9-3.7C468.4,191.8,468,192.8,469.5,196.8
	z"/>
<path id="XMLID_92_" class="st7" d="M499.9,190.1c0.4-1.1,0.4-2.9,0-4s-0.8-0.2-0.8,2S499.4,191.2,499.9,190.1z"/>
<path id="XMLID_91_" class="st7" d="M477.6,131.7c0.4-0.4,0.2-2.6-0.4-4.9c-0.6-2.3-1.4-3.9-1.8-3.6s-0.2,2.6,0.4,4.9
	C476.4,130.5,477.2,132.1,477.6,131.7z"/>
<path id="XMLID_90_" class="st7" d="M467.2,349.3c0,2.2,0.4,3.1,0.8,2s0.4-2.9,0-4C467.5,346.2,467.2,347.1,467.2,349.3z"/>
<path id="XMLID_89_" class="st7" d="M465.7,152.8c-2.5-2-2.6-1.9-0.6,0.6c1.2,1.5,2.5,2.8,2.8,2.8
	C469.2,156.2,468.4,154.9,465.7,152.8z"/>
</svg>
